<?xml version="1.0" encoding="utf-8"?>
<!-- Generator: Adobe Illustrator 23.1.0, SVG Export Plug-In . SVG Version: 6.00 Build 0)  -->
<svg version="1.1" id="Layer_1" xmlns="http://www.w3.org/2000/svg" xmlns:xlink="http://www.w3.org/1999/xlink" x="0px" y="0px"
	 viewBox="0 0 504 742" style="enable-background:new 0 0 504 742;" xml:space="preserve">
<style type="text/css">
	.st0{display:none;}
	.st1{stroke:#000000;stroke-miterlimit:10;}
	.st2{fill:none;stroke:#02E2AC;stroke-width:2;stroke-miterlimit:10;}
	.st3{fill:none;stroke:#5932C4;stroke-width:2;stroke-miterlimit:10;}
	.st4{fill:none;stroke:#02E2AC;stroke-width:2.4846;stroke-linecap:round;stroke-linejoin:round;stroke-miterlimit:10;}
	.st5{fill:none;stroke:#02E2AC;stroke-width:3;stroke-miterlimit:10;}
	.st6{fill-rule:evenodd;clip-rule:evenodd;fill:#02E2AC;}
	.st7{fill:#02E2AC;}
	.st8{font-family:'ArcadeRounded';}
	.st9{font-size:55px;}
	.st10{font-family:'OverpassMono-Bold';}
	.st11{font-size:10px;}
	.st12{fill:none;stroke:#5932C4;stroke-width:3;stroke-miterlimit:10;}
</style>
<g id="top2__x5B_BG_x5D_" class="st0">
</g>
<g id="Layer_13">
	<rect x="25.9" y="28.7" class="st1" width="454" height="689"/>
</g>
<g id="Layer_12">
	<g>
		<path class="st2" d="M452.9,548.7h-403v-403h403V238c-13-0.3-4,3.7,0,7.4V548.7z"/>
		<path class="st3" d="M429.4,247.7v-78.5h-92.7c-14.5-10.6-29.3-8.5-44.3,0c-0.6,1.1-1.7,2-3.2,2.3c-0.7,1-1.8,1.8-3.3,2
			c-0.4,1-1,1.8-2,2.4c-0.3,0.9-0.8,1.8-1.5,2.4c-0.2,1.3-1,2.6-2.2,3.3c1.1,2.9-0.3,7-4.5,7c-2.1,0-3.5-1-4.2-2.5
			c-0.7-0.1-1.5-0.3-2.2-0.5c-0.8-0.3-1.6-0.6-2.4-1c-0.1-0.1-0.3-0.1-0.4-0.2c0,0-0.1,0-0.1-0.1c0,0-0.1,0-0.1-0.1h-0.1h0.1
			c-1.5-0.6-2.7-1.7-3.2-3.1c-0.5,0-0.9-0.1-1.3-0.2c-2-0.6-3.3-2.1-3.7-3.9c-0.2,0-0.3,0-0.5,0c-1.9,0-3.2-0.8-4-2
			c-0.8-0.3-1.5-0.8-2-1.3c-0.2,0-0.5,0.1-0.8,0.1c-1.7,0-2.9-0.7-3.7-1.7c-0.2,0-0.4,0.1-0.6,0.1c-1,0-1.9-0.2-2.5-0.7
			c-0.4,0.2-0.8,0.3-1.3,0.4c-0.4,0.1-0.8,0.2-1.3,0.2c-2.3,0-3.7-1.2-4.4-2.8H72.4v357h357V281.8c0-2.6-1.2-2.4-2-2.6"/>
		<g>
			<g>
				<path class="st4" d="M286.6,241.9c1.6,0.6,3.4,0.9,4.8,1.8c9.6,5.8,20,5.8,30.3,3.9c6.7-1.2,12.7-4.8,18.3-8.9
					c2.9-2.1,2.2-5.9,3.1-8.9c1.1-3.7,0.9-7.8,2.3-11.3c2.1-5.5-0.4-9.9-2.2-14.5c-4.2-11-12.5-18.1-23.1-22.3
					c-6.7-2.6-13.9-3.7-21.3-2.3c-7.2,1.3-13.3,4.9-19.6,8.1"/>
				<path class="st4" d="M257.7,422.5c-0.3,1.1-0.8,2.3-1,3.5c-1,5.6,1,10.5,3.1,15.5c2.9,7.1,7.3,13.2,13.3,17.8
					c5.1,4,7.8,9.2,10.6,14.6c3,5.9,7.8,10.1,13.4,13.4c5.5,3.3,11.6,5.4,17.9,6.1c2.9,0.3,6.1-0.6,8.9-1.7c2.5-0.9,3.3-5.8,1.8-8.2
					c-4.3-6.9-8.9-13.7-13-20.7c-1.9-3.4-2.2-7.8-4.4-10.9c-2.6-3.6-6.2-6.6-8-10.8c-0.5-1.1-0.3-2.5-0.4-3.8"/>
				<path class="st4" d="M239.9,418.7c2.6,2.4-0.7-1.9,2.3,0.1c2,1.4,3.5,3.4,5.2,5.1"/>
				<path class="st4" d="M170.8,307c-3.4-2.4-6.8-4.9-10.4-7.2c-8-5.2-15.9-10.7-24.2-15.4c-6.4-3.6-13.3-6.2-19.9-9.5
					c-4.5-2.3-8.8-5-13.1-7.5s-8.8-5-13.1-7.6c-2.9-1.8-4.4-0.1-5.5,2.1c-1.5,2.9-1.7,6.1-1.1,9.3c2.9,14.9,9.7,27.7,21.8,37.1
					c3.8,2.9,8.4,5.2,13.1,6.5c8.5,2.4,14.8,7.8,19.8,14.4c5.8,7.5,10.9,15.6,15.9,23.7c0.5,0.8-0.9-1-0.3-0.3"/>
				<path class="st4" d="M396,324.3c3.6,4.2,4.5,9.4,5.5,14.5c0.9,4.8,1.6,9.6,1.7,14.5c0.2,5.7-0.3,11.3-5,15.6
					c-0.7,0.6-1.1,1.8-1.4,2.7c-2.3,6.5-4.4,13.2-7,19.6c-1.3,3.2-3.9,5.9-5.4,9c-4.2,9.1-7.8,18.4-13.8,26.6
					c-5.1,7-10.9,12.8-19,16.2c-5.1,2.1-10,4.6-15.2,6.4c-3.5,1.2-7.3,1.9-11,2.1c-5,0.3-10.1-0.1-15.2-0.2c-0.6,0-1.1,0.2-1.7,0.3"
					/>
				<path class="st4" d="M292.5,315.3c5,0,9.9-0.2,14.8,1.3c11.8,3.7,22.2,9.4,29.3,20c5,7.5,9,15.4,11.3,24.1
					c1.6,6.1,3,12.2,1.8,18.6"/>
				<path class="st4" d="M243.2,396.7c0.5,1.6,1.1,3.2,1.7,4.8"/>
				<path class="st4" d="M188.7,330.8c4.5,7.2,17.6,17.3,17.6,17.3s4.6,3.6,11.6,12.6"/>
				<path class="st4" d="M342.9,213.2c-0.7-1.8-1.2-3.7-2.1-5.5c-3.8-7.8-8.6-14.9-16.2-19.7c-5.5-3.4-11.4-5.1-17.9-5.6
					c-10.5-0.9-18.9,3.4-26.9,9.4c-0.6,0.5-1.6,0.5-2.4,0.7"/>
				<path class="st4" d="M401.8,258.8c-0.5-0.9-1.4-1.9-1.3-2.7c0.8-5.9-1.7-10.9-5-15.1c-6.5-8.3-13.6-16.2-20.6-24.2
					c-3.1-3.6-7.9-4-12.1-5.5c-1.7-0.6-2.1,1-1.6,2.3c0.3,0.8,1.1,1.4,1.7,2.1"/>
				<path class="st4" d="M299.1,257.4c4.7,4.7,9.2,9.7,14.2,14c3.7,3.2,6.6,2.5,9.9-1.3c11.1-12.7,25.1-20.6,41.1-25.4
					c2.3-0.7,2.4-1.8,1.7-3.5c-1.2-2.8-2.3-5.7-3.8-8.2c-1.1-1.8-2.7-3.7-4.5-4.8c-3.1-1.9-3-4.6-2.6-7.3c0.6-4.1,1.9-8,2.3-12.1
					c0.3-4.6,0.5-9.3-0.4-13.8c-1.3-7-4.3-13.8-9.6-18.5c-7.7-6.8-16.2-12.9-26.8-14.2c-10-1.2-19.5,0.8-27.9,6.8
					c-5.1,3.6-9,8.4-12.3,13.5c-1.5,2.3-2.6,5.2-3.1,7.9c-1.5,7.4-3.2,14.9-3.6,22.4c-0.2,4.4,1.6,9,2.9,13.4
					c1.7,5.6,4.9,10.2,8.7,14.7c3.5,4,7.4,7.3,11.2,10.9c0.7,0.7,1.6,1.7,2.4,1.6c4.8-0.4,7.8,3.4,11.7,4.9"/>
				<path class="st4" d="M287.7,362.9c1.1,1.6,2.4,2.7,4.5,1.8c0.4-0.2,1.4,0,1.7,0.3c3.1,3.4,7.8,3.5,11.5,5.7
					c3.8,2.2,8.1,3.8,12.4,4.8c4.5,1.1,9.2,1.3,13.8,1.8c8.3,0.9,16.8,1,24.5,4.8c3.4,1.7,6.5,3.5,9,6.5s2.4,5.9,0.9,9
					c-2.1,4.3-5.3,7.7-9.6,9.6c-4.9,2.2-9.8,4.3-14.8,6.2c-2.6,1-5.5,1.6-8.3,1.7c-6.7,0.1-13.3-0.1-20-0.3c-1.5-0.1-3-0.8-4.5-1.3
					c-1.3-0.5-2.2-1.3-3.9-0.2c-1.1,0.7-3.4-0.2-5.1-0.5c-3.2-0.7-6.4-1.6-9.7-2.2c-1.8-0.3-3.7,4-2.7,6c1.9,3.8,4,7.5,5.8,11.4
					c0.6,1.2,0.5,2.7,0.7,4.1"/>
				<path class="st4" d="M245.6,326.3c-0.5,6.2-1,12.3,1.4,18.3c2.8,6.9,5.9,13.5,12,18.4c5.3,4.3,10.9,5.6,17.3,3.4
					c0.3-0.1,0.7,0,1,0"/>
				<path class="st4" d="M378,300.8c-5.9-0.6-11.7-1.8-17.6-1.6c-9.4,0.3-18.3,3-25.8,8.9c-2,1.6-3.6,2-5.9,1.7
					c-8.1-1.2-15.7,0.6-23.1,3.8c-0.5,0.2-0.7,0.9-1,1.3"/>
				<path class="st4" d="M354.9,226.7c-3,2.1-4.4,6.1-8.3,7.3c-0.2,0.1-0.3,0.6-0.4,1c-1.8,6.5-6.8,10-12,13.5
					c-7.5,5.1-15.6,7.1-24.5,5.8c-1.4-0.2-3,0.4-4.5,0.6"/>
				<path class="st4" d="M276.3,267.7c-4,4-8.3,7.8-12,12.1c-5.2,6-7.9,13.4-9.7,21c-1,4-1.6,8-2.4,12.1"/>
				<path class="st4" d="M198.4,314.3c5.1,9.7,13.5,14.9,23.8,17.7c6.1,1.6,11.7,1,17.3-1.5"/>
				<path class="st4" d="M253.2,214.3c0-0.1,0-0.3,0-0.3c-1.9-1.2-4.3-1.9-5.7-3.6c-1.3-1.4-1.1-4.1-2.3-5.7
					c-5.3-7.2-12.8-8.6-21.3-3.8c-5.1,2.9-8.9,7.4-12.5,12c-4.1,5.1-6.9,10.9-9.2,17c-3,7.8-3.6,15.9-2.5,24.1
					c0.6,4.4,0.9,8.9,3.4,12.8c0.5,0.7,0.1,2,0.1,3.1c0.1,7.9,0.4,15.9,0.2,23.8c-0.1,2.9-1.2,5.8-2,8.6c-1.4,5.6-5.5,8-10.7,9.3
					c-2,0.5-3.9,1.5-5.9,2c-1.3,0.3-2.7,0.3-4.1,0.4"/>
				<path class="st4" d="M266.3,370.5c-2.4,8.7-1,16.9,3.8,24.5c3.3,5.1,7.1,9.6,13.1,11.8c1.3,0.5,2.3,1.8,3.5,2.7"/>
				<path class="st4" d="M246.3,217c-0.5,3.1-1,6.2-1.4,9.3c-1.2,9.7-2.7,19.4-3.1,29.3c-0.3,6.1,0.8,12,1,17.9
					c0.4,10.6,2.4,21.2,3.9,31.7c0.2,1.3,0.8,2.6,1.4,3.8c1.9,3.7,3.2,7.5,2.7,11.7c-0.6,6,1.7,11.2,3.8,16.6"/>
				<path class="st4" d="M375.3,293.9c-6.4-1.5-13-1.8-19.3-0.2c-7.2,1.8-14.1,4.7-20,9.5c-0.1,0.1-0.2,0-0.3,0"/>
				<path class="st4" d="M387.7,329.8c4.2,8.5,6.3,17.4,6.7,26.9c0.2,4.3-0.7,9,2.6,12.8"/>
				<path class="st4" d="M337,415.7c-6.2,10.2-15.8,15.6-26.9,19c-1.7,0.5-3.5,0.8-5.2,1.4c-3.9,1.3-6.9,1.4-9.9-2.6
					c-1.6-2.2-5.6-1.3-8.4,0.2"/>
				<path class="st4" d="M293.2,364.3c-0.6-1.4-1-2.9-1.8-4.1c-2.4-3.9-5.3-7.6-5.4-12.4c-0.1-3.7,0.4-7.4,0.6-11
					c0.4-7.4,2.6-14.4,5-21.4c2.3-6.5,3.3-13.5,5-20.3c1.5-6,2.3-12.1,1.4-18.3c-0.8-5.3-6.7-10.3-12.1-10c-0.7,0-1.4,0.2-2.1,0.3
					c-6.1,1.7-10.3-1.8-14.4-5.2c-2.9-2.4-5.3-5.2-8-7.9"/>
				<path class="st4" d="M277.3,230.5c-0.5,0.8-1.2,1.6-1.3,2.4c-1.1,10.7,0.2,21.2,3.7,31.4c0.3,0.9,0.3,1.8,0.4,2.8"/>
				<path class="st4" d="M407.7,318.8c0.3,2,1.1,3.9,1,5.9c-0.6,8.7-1.6,17.5-2.3,26.2c-0.2,1.8-1.1,2.9-2.8,3.4"/>
				<path class="st4" d="M203.9,293.2c3.4,4.2,7.1,8.3,11.8,10.9c7.6,4.2,15.5,4.3,23-0.6"/>
				<path class="st4" d="M284.2,373.9c-1.7,3.9-2.6,7.8-2.8,12.1c-0.4,7.3,2.9,13.2,6.7,18.9c1.2,1.7,1.8,3.3,1.6,5.2"/>
				<path class="st4" d="M358,313.2c14,5.2,23.6,15.2,30.7,27.9"/>
				<path class="st4" d="M333.9,310.1c5.4,1.7,10.9,3.1,16.2,5.3c6.3,2.6,12.1,6,16.9,10.9"/>
				<path class="st4" d="M296,329.8c13.4,4.1,21.6,14,28.3,25.5"/>
				<path class="st4" d="M427.7,265c-3.3-2.7-6.2-6-11.4-4.7c-2.3,0.6-5.1-0.6-7.5-1.2c-5.5-1.5-9.1,1-9.3,6.6
					c-0.1,2.5,0.6,5.1-1.4,7.2"/>
				<path class="st4" d="M247.7,367.7c2,10.2,7.6,18.1,15.5,24.5c1.2,1,2.1,2.5,3.1,3.8"/>
				<path class="st4" d="M382.2,267c-5.5-1-10.6,0.4-15.9,1.6c-4.7,1.1-8.8,3.2-13.1,5.3"/>
				<path class="st4" d="M364.2,216.3c4.8,6.6,9.7,13.1,14.5,19.7c1,1.4,1.4,3.1,2.5,4.4c1.4,1.8,3,3.5,4.8,4.8
					c5.2,3.9,9,8.6,11.1,14.9c0.4,1.3,1.6,2.4,2.4,3.6"/>
				<path class="st4" d="M356,278.1c-7.2,4.5-13,10.5-17.5,17.6c-1.4,2.3-2,5.1-3.2,7.5c-0.4,0.8-1.3,1.4-2,2.1"/>
				<path class="st4" d="M208,216.3c-3.5-0.5-5.3,2.3-6.8,4.2c-4.4,5.7-5.1,12.3-2.9,19.2"/>
				<path class="st4" d="M410.8,297c0.3,3.4,1.2,6.9,0.9,10.3c-0.4,5.2-1.5,10.4-2.3,15.5"/>
				<path class="st4" d="M343.5,174.3c0.3,0.9,0.5,2,1.1,2.7c4.5,5.4,7.3,11.7,8.8,18.3c1.3,5.8,1.3,11.9-0.2,17.9
					c-0.1,0.5-0.4,1-0.3,1.4c1.6,5.5-2.1,9.7-3.5,14.5c-0.3,1.1-0.5,2.3-0.7,3.4"/>
				<path class="st4" d="M452.5,238.4c-3.1-1.1-5.5-1.2-8.1,1.9c-1.9,2.3-5,4.4-8.8,4.5c-1.9,0-4,1.3-5.4,2.7
					c-2.9,2.9-5.6,6.1-6.6,10.3"/>
				<path class="st4" d="M398,295.3c2,1.1,3.8,2.5,5.9,3.4c2,0.9,4.2,0.5,5.8-1c1.5-1.4,1-3,0.5-4.8c-1.3-4.7-3.5-8.9-6.6-12.8
					c-2.7-3.4-6.2-4.6-10.4-4.8c-2.6-0.1-3.2,1.3-3.5,3.5c-0.6,5.2,1.4,9.4,4.8,13.1"/>
				<path class="st4" d="M294.2,389.1c0,9.3,3.3,16.9,11,22.4c0.2,0.2,0.2,0.7,0.4,1"/>
				<path class="st4" d="M375.3,338.8c5.3,7.2,8.6,15.2,9.7,24.1"/>
				<path class="st4" d="M203.5,267.4c2.5,1.5,5,3.2,7.6,4.4c5,2.3,10.4,2.9,15.8,2.8"/>
				<path class="st4" d="M319.1,309.3c-3-2.2-6-4.4-9-6.7c-4.1-3.3-8.1-6.6-12.1-10"/>
				<path class="st4" d="M241.5,360.1c-2.1-2.6-3.9-5.5-6.3-7.9c-3.6-3.6-8-6.2-13-7.3"/>
				<path class="st4" d="M262.2,165.7c-2.1-2.4-5-1.4-7.6-1.7c-5.3-0.6-10.3-2.7-15.9-2.1c-3.1,0.3-4.7,2.1-3.5,4.9
					c0.4,0.9,0.5,1.8,0.7,2.8c0.4,1.7,1.4,2.9,3.1,2.7c7.1-0.8,13.1,1.4,18.3,6.2c0.1,0.1,0.7-0.2,1-0.3"/>
				<path class="st4" d="M332.5,239.4c-5.2,1.7-10.3,3.5-15.5,5.1c-1.5,0.5-3.2,0.5-4.8,0.7"/>
				<path class="st4" d="M282.5,171.2c-4.4-2-8.7-4.1-13.1-5.8c-5.1-2-10.6,1.4-10.9,6.9c-0.4,6.3,0.5,10.4,7.8,11.8
					c1.7,0.3,3.2,2,4.9,3c1.7,1.1,3.4,2.1,5.2,3.1"/>
				<path class="st4" d="M388.4,375.3c1.2,5.2-0.6,10.1-1.4,15.2c-0.2,1.5-0.2,3-0.4,4.5"/>
				<path class="st4" d="M289.4,324.6c7.2-0.3,13.6,2.2,19.7,5.9"/>
				<path class="st4" d="M313.2,419.4c-6.1,3.6-12.4,6.5-19.3,7.9"/>
				<path class="st4" d="M134.6,297.4c-1.6,7-3.2,14.1-10,18.3"/>
				<path class="st4" d="M427,279.4c-5.7,3.6-11.9,6.1-18.3,8.3"/>
				<path class="st4" d="M384.6,245.3c0.8,2,1.5,3.9,2.4,5.9c1.9,4.1,4,8,4.1,12.8c0.1,3.9,2.5,6.7,5.9,8.7c1.2,0.7,1.9,2.4,2.8,3.7
					"/>
				<path class="st4" d="M327.7,416.3c-2,3.9-6.1,5-9.7,6.9c-2,1-4.1,1.6-6.2,2.5"/>
				<path class="st4" d="M252.5,413.9c-1.7,5.6-0.1,11.1,1.1,16.5c0.2,1,1.5,1.9,2.3,2.8"/>
				<path class="st4" d="M279.4,374.6c-2.5,5-3,10.4-2.8,15.9"/>
				<path class="st4" d="M242.5,256c4.7,1.7,9.5,3.3,14.1,5.2c6.1,2.4,12.2,5,18.3,7.6"/>
				<path class="st4" d="M326.3,260.1c-5.1,0.3-10.2,1-15.2-1"/>
				<path class="st4" d="M160.1,306.3c3.8,0.7,7.3,1.9,11.4,1.2c2.6-0.4,5.5,1.1,8.2,1.9c2.2,0.6,4.4,1.4,6.6,2.1"/>
				<path class="st4" d="M247.3,409.1c0.1,4.9-0.3,10,0.6,14.8c0.5,2.8,1.8,6.4,5.6,7.3"/>
				<path class="st4" d="M252.9,315.3c1.4,4.7,2.8,9.4,4.1,14.1"/>
				<path class="st4" d="M283.9,447.7c-2.7,3.9-4.5,8.2-4.5,13.1"/>
				<path class="st4" d="M393.2,310.5c3.6,3.3,7,6.7,8.3,11.7"/>
				<path class="st4" d="M272.9,212.9c-4.5,0.2-9,0.4-13.4,0.7c-1.5,0.1-2.2,0.3-2.9-1.7c-1.5-4.1-5.6-3.8-9.2-4.2"/>
				<path class="st4" d="M301.1,254.3c-0.1,2.7,1.8,4.2,3.4,5.9c1.6,1.6,3,3.2,4.5,4.8"/>
				<path class="st4" d="M394.6,244.3c-3.5-1.8-7-3.6-11-3.4"/>
				<path class="st4" d="M251.1,394.6c1.7,3.5,3.9,6.9,3.4,11"/>
				<path class="st4" d="M259.4,229.1c0,3.7,0,7.4,0,11"/>
				<path class="st4" d="M312.9,247.7c-1.3-2.1-2.3-4.3-3.9-6.2c-1.8-2.1-4.5-1.3-6.8-1.4"/>
				<path class="st4" d="M269.8,409.8c-4.6,0.6-7.3,3.5-9,7.6"/>
				<path class="st4" d="M302.2,370.1c-2.6,3-5.5,5.8-6.2,10"/>
				<path class="st4" d="M270.4,346.3c2.8,2.6,6.3,2,9.7,2.1"/>
				<path class="st4" d="M453.9,245c-2.3,0.6-3.2,2.2-3.9,4.5c-0.9,3.1-3.1,5.9-3,9.3"/>
				<path class="st4" d="M439.4,244.6c3.4,2.3,6.3,5,8.3,8.6"/>
				<path class="st4" d="M320.8,303.6c3.1,1.3,6.2,2.5,9.3,3.8"/>
				<path class="st4" d="M442.2,265c-2.6,2.6-5.3,5.3-7.9,7.9"/>
				<path class="st4" d="M391.5,268.1c-1.6-0.5-3.3-0.8-4.8-1.4s-3-1.4-4.5-2"/>
				<path class="st4" d="M358.4,229.5c0.6,3.1,2,5.8,4.8,7.6"/>
				<path class="st4" d="M363.5,216c-0.1,0.8-0.6,1.8-0.3,2.4c1.1,2,2.5,3.9,3.7,5.9"/>
				<path class="st4" d="M431.1,264.3c-2.5-1.7-4.2-4.8-7.9-3.8"/>
				<path class="st4" d="M267.7,171.2c-1.4,2.4-3.5,4.8-0.7,7.6"/>
				<path class="st4" d="M444.9,240.5c2.8,0.8,5.4,1.8,5.9,5.2"/>
				<path class="st4" d="M286,350.5c-0.8,2.3-1.6,4.6-2.4,6.9"/>
				<path class="st4" d="M240.4,261.5c-2,2.3-3.9,4.6-5.9,6.9"/>
				<path class="st4" d="M409.1,276c-0.9,2.3-1.8,4.6-2.8,6.9"/>
				<path class="st4" d="M343.5,214.6c-0.2,1.3-0.3,2.6-0.7,3.8c-0.6,1.8-1.3,3.5-2,5.2"/>
				<path class="st4" d="M242.2,274.3c-2.1,1.7-4.1,3.4-6.2,5.2"/>
				<path class="st4" d="M131.8,282.6c0.7,2.2,1.4,4.4,2.1,6.6"/>
				<path class="st4" d="M286,333.2c-2.2,0.7-4.4,1.4-6.6,2.1"/>
				<path class="st4" d="M348.7,220.8c-0.3,2.1-0.7,4.1-1,6.2"/>
				<path class="st4" d="M381.1,262.6c3.1,0.3,6.2,0.7,9.3,1"/>
				<path class="st4" d="M297.3,238.8c-0.2,0-0.5,0-0.7,0c-4.7,0-4.7,0-5.5,4.5"/>
				<path class="st4" d="M340.8,352.5c0.5,1.8,0.9,3.7,1.4,5.5"/>
				<path class="st4" d="M249.8,163.9c-0.7,1.7-1.4,3.4-2.1,5.2"/>
				<path class="st4" d="M359.4,331.9c1.5,1.7,3,3.4,4.5,5.2"/>
				<path class="st4" d="M322.9,377c-0.9,1.7-1.8,3.4-2.8,5.2"/>
				<path class="st4" d="M256,214.3c-2.6,0.1-5.3,0.2-7.9,0.3"/>
				<path class="st4" d="M287.7,172.2c-3.1-2-6-0.1-9,0.3"/>
				<path class="st4" d="M419.7,259.1c2.9-1.1,5.8-1.9,8.6,0.3"/>
				<path class="st4" d="M350.4,325c1.4,0.9,2.8,1.8,4.1,2.8"/>
				<path class="st4" d="M325.6,357.4c0.5,1.4,0.9,2.8,1.4,4.1"/>
				<path class="st4" d="M417.3,261.2c1.4,0.8,2.8,1.6,4.1,2.4"/>
				<path class="st4" d="M361.1,211.5c-1-1.1-2.1-2.3-3.1-3.4"/>
				<path class="st4" d="M434.6,269.8c-0.7,1-1.5,2-2.1,3.1c-1.1,2.1-1.5,0.3-2.1-0.4"/>
				<path class="st4" d="M248,211.5c0,4-2.3,6.1-5.9,7.2"/>
				<path class="st4" d="M367.7,341.5c0.7,1.1,1.4,2.3,2.1,3.4"/>
				<path class="st4" d="M453.2,239.8c1.2,0.9,4.1-0.9,3.8,2.4"/>
				<path class="st4" d="M250.1,319.4c-0.8,0.7-1.6,1.4-2.4,2.1"/>
			</g>
		</g>
		<g>
			<path class="st5" d="M108.9,426.9c1.4-8.8,2.9-17.5,6.6-25.8c7.4-16.4,18.8-29,34.5-37.6c3.3-1.8,4.6-4,4.4-7.6
				c-0.2-3.9-0.1-7.7,0.3-11.6c0.3-3.3,2-5.8,5.8-5.7c3.8,0.2,5.1,2.7,5.3,6.1c0,1,0,2,0,3c0,9.6,0.9,10.1,10.3,7.1
				c2.1-0.7,2.4-2.1,2.4-3.8c0.1-2.7,0-5.4,0.5-8c0.6-3,2.7-4.6,5.9-4.4c3,0.2,4.4,2.1,5,4.9c0,0.2,0,0.3,0.1,0.5
				c0.7,3.2-1.6,7.4,1.6,9.4c2.5,1.6,6.2,1.2,9.3,1.8c8.1,1.6,15.6,4.2,22.5,7.8c8,4.2,15.2,9.8,21.8,16.6c2,2.1,1.9,3.5-0.2,5.4
				c-4.1,3.7-8,7.7-12.1,11.5c-1.8,1.7-2,3-0.7,5.2c12.4,19.6,12.6,39.5,0.9,59.5c-1.4,2.4-1.3,4,1.1,5.4c0.1,0.1,0.3,0.2,0.4,0.3
				c11,5.1,13.6,13.9,12.1,25.2c-0.8,5.8-0.3,11.7-0.4,17.6c-23.6,0-47.1,0-70.7,0c-1.1-0.3-2.2-0.7-3.4-0.9
				c-23.6-5.2-41.5-18.2-53.5-39.2c-5.6-9.8-8-20.6-9.7-31.5C108.9,434.3,108.9,430.6,108.9,426.9z M203.4,495.3
				c8.8,0,16.2,0,23.6,0c1.6,0,3.4,0.4,4.4-1.5c1.5-2.9,0-10.3-2.7-12.4c-10.7-8.1-21.5-16.2-32.2-24.4c-2-1.5-4-1.9-6.5-1.7
				c-10.2,0.9-18.3-2.9-23.2-11.9c-4.5-8.1-4.3-16.7,1.1-24.3c5.8-8.3,14-11.8,24.2-9.6c2.3,0.5,4.1,0.3,5.9-1.4
				c8.2-7.7,16.4-15.4,24.8-23c2.5-2.3,2.2-3.5-0.5-5.3c-16.3-10.8-33.9-12.8-52.6-8.3c-3,0.7-4.1,2.4-4,5.4c0.1,6.4,0,12.8,0,19.2
				c0,3.7-1,7-5.3,7.2s-5.7-3.1-6-6.7c-0.3-4.2-0.1-8.4-0.2-12.6c0-1.4,0.7-3.4-1-4.1c-1.6-0.7-2.7,1.1-3.9,1.8
				c-0.6,0.3-1.1,0.8-1.6,1.2c-19.8,16.7-27.6,38.1-22.1,63.1c5.3,24.3,21.1,39.9,45,47.1C181.9,496.4,193.4,495,203.4,495.3z
				 M226.9,431.3c0.1-3.3-0.6-7.8-2.1-12.1c-3.9-11.5-4.6-11.7-13.2-3.5c-0.5,0.5-0.9,1-1.5,1.4c-2.4,1.8-2.7,3.7-1.5,6.5
				c2.1,4.9,2.9,10.6,0.4,15.2c-3.2,6-1.1,9.1,3.9,11.9c1,0.6,2,1.3,2.8,2.1c2.8,2.6,4.6,1.6,6.2-1.4
				C225.1,445.6,226.9,439.3,226.9,431.3z M195.3,432.1c-0.1-4.6-3.8-8.1-8.5-8s-7.9,3.3-7.9,7.9s3.8,8.5,8.2,8.5
				C191.4,440.6,195.4,436.5,195.3,432.1z"/>
		</g>
		<path class="st6" d="M68,599.7c-0.2,0.2-0.1,0.5,0.2,0.6l11.8,3.1c1.1,0.3,2.1,1,2.7,2.1c0.6,1,0.7,2.3,0.4,3.4l-0.3,1.2
			c-0.3,1.2,0,2.6,0.9,3.4c0.9,0.8,2.1,1.2,3.3,0.8l1.3-0.4c0.3-0.1,0.5-0.4,0.4-0.8c0,0-4.6-17.2-4.9-18.7c0-0.1,0-0.1-0.1-0.2
			l-5-5c-0.1-0.1-0.4-0.1-0.5,0L68,599.7z M91.8,615.8c-0.6,1-1.6,1.7-2.7,2l-1.1,0.3c-1.2,0.3-2.2,1.3-2.5,2.5s0,2.4,0.9,3.3l1,1
			c0.2,0.2,0.6,0.2,0.9,0l12.7-12.7c0.1-0.1,0.1-0.4,0-0.5l-10.9-10.9c-0.3-0.3-0.7,0-0.6,0.3l3,11.3
			C92.7,613.5,92.5,614.8,91.8,615.8z M53.2,622.6c-0.1,0.1-0.4,0.1-0.5,0l-3.5-3.5c-0.1-0.1-0.1-0.4,0-0.5l15.1-15.1
			c0.1-0.1,0.2-0.1,0.3-0.1l14.3,3.8c0.2,0,0.3,0.2,0.4,0.3s0.1,0.3,0,0.5l-0.3,1.3c-0.3,1.2-1.2,2.1-2.4,2.4
			c-1.2,0.3-2.4,0-3.3-0.9l-0.9-0.9c-0.8-0.8-1.9-1.3-3-1.4c-1.2,0-2.4,0.4-3.3,1.3C66,609.8,55,620.8,53.2,622.6z M78.7,648.1
			l10.4-10.4c0.2-0.2,0.1-0.6-0.2-0.6l-12-3.2c-1.1-0.3-2.1-1-2.7-2.1c-0.6-1-0.7-2.3-0.4-3.4l0.3-1.1c0.3-1.3,0-2.7-1.1-3.6
			c-0.9-0.7-2-1-3.1-0.7l0,0l0,0l0,0l0,0l0,0c-0.9,0.3-1.5,1.3-1.2,2.3l4.4,17.8l5.1,5.1C78.3,648.3,78.6,648.3,78.7,648.1z
			 M103.6,614.9c0.1-0.1,0.4-0.1,0.5,0l3.7,3.7c0.1,0.1,0.1,0.4,0,0.5L92.9,634c-0.1,0.1-0.2,0.1-0.3,0.1L78,630.2
			c-0.2,0-0.3-0.2-0.4-0.3s-0.1-0.3,0-0.5l0.3-1.2c0.3-1.2,1.3-2.2,2.5-2.5c0.3-0.1,0.5-0.1,0.8-0.1c0.9,0,1.8,0.4,2.4,1l1,1
			c0.8,0.8,2,1.3,3.1,1.3c1.2,0,2.3-0.5,3.1-1.3L103.6,614.9z M65,621.6c0.6-1,1.6-1.8,2.7-2.1l1.2-0.3c1.2-0.3,2.2-1.3,2.5-2.5
			s0-2.4-0.9-3.3l-1-1c-0.2-0.2-0.6-0.2-0.9,0c0,0-11,11-12.8,12.8c-0.1,0.1-0.1,0.4,0,0.5L67.1,637c0.3,0.3,0.7,0,0.6-0.3L64.6,625
			C64.3,623.9,64.4,622.7,65,621.6z M82.3,618.8c0,2.1-1.7,3.9-3.9,3.9c-2.1,0-3.9-1.7-3.9-3.9c0-2.1,1.7-3.9,3.9-3.9
			C80.6,614.9,82.3,616.7,82.3,618.8z"/>
		<path class="st6" d="M416,599.7c-0.2,0.2-0.1,0.5,0.2,0.6l11.8,3.1c1.1,0.3,2.1,1,2.7,2.1c0.6,1,0.7,2.3,0.4,3.4l-0.3,1.2
			c-0.3,1.2,0,2.6,0.9,3.4c0.9,0.8,2.1,1.2,3.3,0.8l1.3-0.4c0.3-0.1,0.5-0.4,0.4-0.8c0,0-4.6-17.2-4.9-18.7c0-0.1,0-0.1-0.1-0.2
			l-5-5c-0.1-0.1-0.4-0.1-0.5,0L416,599.7z M439.8,615.8c-0.6,1-1.6,1.7-2.7,2l-1.1,0.3c-1.2,0.3-2.2,1.3-2.5,2.5s0,2.4,0.9,3.3l1,1
			c0.2,0.2,0.6,0.2,0.9,0l12.7-12.7c0.1-0.1,0.1-0.4,0-0.5l-10.9-10.9c-0.3-0.3-0.7,0-0.6,0.3l3,11.3
			C440.7,613.5,440.5,614.8,439.8,615.8z M401.2,622.6c-0.1,0.1-0.4,0.1-0.5,0l-3.5-3.5c-0.1-0.1-0.1-0.4,0-0.5l15.1-15.1
			c0.1-0.1,0.2-0.1,0.3-0.1l14.3,3.8c0.2,0,0.3,0.2,0.4,0.3s0.1,0.3,0,0.5l-0.3,1.3c-0.3,1.2-1.2,2.1-2.4,2.4
			c-1.2,0.3-2.4,0-3.3-0.9l-0.9-0.9c-0.8-0.8-1.9-1.3-3-1.4c-1.2,0-2.4,0.4-3.3,1.3C414,609.8,403,620.8,401.2,622.6z M426.7,648.1
			l10.4-10.4c0.2-0.2,0.1-0.6-0.2-0.6l-12-3.2c-1.1-0.3-2.1-1-2.7-2.1c-0.6-1-0.7-2.3-0.4-3.4l0.3-1.1c0.3-1.3,0-2.7-1.1-3.6
			c-0.9-0.7-2-1-3.1-0.7l0,0l0,0l0,0l0,0l0,0c-0.9,0.3-1.5,1.3-1.2,2.3l4.4,17.8l5.1,5.1C426.3,648.3,426.6,648.3,426.7,648.1z
			 M451.6,614.9c0.1-0.1,0.4-0.1,0.5,0l3.7,3.7c0.1,0.1,0.1,0.4,0,0.5L440.9,634c-0.1,0.1-0.2,0.1-0.3,0.1l-14.5-3.9
			c-0.2,0-0.3-0.2-0.4-0.3s-0.1-0.3,0-0.5l0.3-1.2c0.3-1.2,1.3-2.2,2.5-2.5c0.3-0.1,0.5-0.1,0.8-0.1c0.9,0,1.8,0.4,2.4,1l1,1
			c0.8,0.8,2,1.3,3.1,1.3c1.2,0,2.3-0.5,3.1-1.3L451.6,614.9z M413,621.6c0.6-1,1.6-1.8,2.7-2.1l1.2-0.3c1.2-0.3,2.2-1.3,2.5-2.5
			s0-2.4-0.9-3.3l-1-1c-0.2-0.2-0.6-0.2-0.9,0c0,0-11,11-12.8,12.8c-0.1,0.1-0.1,0.4,0,0.5l11.2,11.2c0.3,0.3,0.7,0,0.6-0.3
			l-3.1-11.7C412.3,623.9,412.4,622.7,413,621.6z M430.3,618.8c0,2.1-1.7,3.9-3.9,3.9s-3.9-1.7-3.9-3.9c0-2.1,1.7-3.9,3.9-3.9
			S430.3,616.7,430.3,618.8z"/>
		<g>
			<text transform="matrix(1 0 0 1 67.6529 105.5828)" class="st7 st8 st9">GITCOIN</text>
		</g>
		<g>
			<text transform="matrix(1 0 0 1 128.9708 682.8416)" class="st7 st10 st11"> </text>
			<text transform="matrix(1 0 0 1 128.9708 694.8416)" class="st7 st10 st11">IT’S ALL COORDINATION - ALLWAYS HAS BEEN</text>
		</g>
		<rect x="25.9" y="28.7" class="st5" width="454" height="689"/>
		<rect x="39.4" y="40.2" class="st12" width="426" height="82"/>
		<rect x="39.4" y="572.2" class="st12" width="77" height="93"/>
		<rect x="388.4" y="572.2" class="st12" width="77" height="93"/>
		<rect x="124.4" y="572.2" class="st12" width="254" height="93"/>
		<rect x="38.9" y="134.7" class="st12" width="427" height="427"/>
		<g>
			<text transform="matrix(1 0 0 1 147.8057 644.2761)" class="st7 st8 st9">2021</text>
		</g>
		<rect x="38.9" y="681.7" class="st3" width="427" height="19"/>
	</g>
</g>
</svg>
