<?xml version="1.0" encoding="utf-8"?>
<!-- Generator: Adobe Illustrator 23.1.0, SVG Export Plug-In . SVG Version: 6.00 Build 0)  -->
<svg version="1.1" xmlns="http://www.w3.org/2000/svg" xmlns:xlink="http://www.w3.org/1999/xlink" x="0px" y="0px"
	 viewBox="0 0 504 742" style="enable-background:new 0 0 504 742;" xml:space="preserve">
<style type="text/css">
	.st0{display:none;}
	.st1{display:inline;}
	.st2{stroke:#000000;stroke-miterlimit:10;}
	.st3{display:inline;fill:none;stroke:#5932C4;stroke-width:2;stroke-miterlimit:10;}
	.st4{display:inline;fill:none;stroke:#5932C4;stroke-miterlimit:10;}
	.st5{fill:none;stroke:#02E2AC;stroke-width:2;stroke-miterlimit:10;}
	.st6{display:inline;fill:#5932C4;}
	.st7{fill:#F3587D;}
	.st8{display:inline;fill-rule:evenodd;clip-rule:evenodd;fill:#F3587D;}
	.st9{font-family:'ArcadeRounded';}
	.st10{font-size:55px;}
	.st11{fill:#02E2AC;}
	.st12{font-family:'OverpassMono-Bold';}
	.st13{font-size:10px;}
	.st14{display:inline;fill:none;stroke:#02E2AC;stroke-width:3;stroke-miterlimit:10;}
	.st15{display:inline;fill:none;stroke:#02E2AC;stroke-width:2;stroke-miterlimit:10;}
	.st16{display:inline;fill:#02E2AC;}
	.st17{display:inline;fill:none;stroke:#5932C4;stroke-width:1.7;stroke-miterlimit:10;}
	.st18{fill:none;stroke:#5932C4;stroke-width:2;stroke-miterlimit:10;}
	.st19{fill:none;stroke:#F3587D;stroke-width:2.4846;stroke-linecap:round;stroke-linejoin:round;stroke-miterlimit:10;}
	.st20{fill-rule:evenodd;clip-rule:evenodd;fill:#F3587D;}
	.st21{fill:none;stroke:#5932C4;stroke-width:3;stroke-miterlimit:10;}
	.st22{fill:#5932C4;}
</style>
<g id="Layer_3" class="st0">
	<g id="Layer_13" class="st1">
		<rect x="26.5" y="28.7" class="st2" width="452.5" height="687.2"/>
	</g>
</g>
<g id="Layer_2" class="st0">
	<path class="st3" d="M453,550.7H50v-405h403v92.7c-13-0.3-4,3.8,0,7.4V550.7z"/>
	<path class="st4" d="M427.5,279.2c-11.7,7-17.9,10.2-20,8c-0.4-0.5-0.6-1.1-0.7-2c-0.9-0.8-1.4-2-1.3-3.6c0.1-1.4,0.1-1.3-0.7-2.2
		c-0.9-1-1.9-1.9-2.8-2.9c-2.7-3-4-6.6-3.2-10.6c0.9-4.5,4.3-7.3,8.8-7.1c3.7,0.1,7.1,2.2,10.8,2c0.5,0,0.9,0,1.4,0.1
		c2.8-3.9,6-8.3,9.7-13.1v-78.5h-92.7c-14.5-10.6-29.3-8.5-44.3,0c-0.6,1.1-1.7,2-3.2,2.3c-0.7,1-1.8,1.8-3.3,2c-0.4,1-1,1.8-2,2.4
		c-0.3,0.9-0.8,1.8-1.5,2.4c-0.2,1.3-1,2.6-2.2,3.3c1.1,2.9-0.3,7-4.5,7c-2.1,0-3.5-1-4.2-2.5c-0.7-0.1-1.5-0.3-2.2-0.5
		c-0.8-0.3-1.6-0.6-2.4-1c-0.1-0.1-0.3-0.1-0.4-0.2c0,0-0.1,0-0.1-0.1c0,0-0.1,0-0.1-0.1c0,0-0.1,0-0.1,0c0,0,0.1,0,0.1,0
		c-1.5-0.6-2.7-1.7-3.2-3.1c-0.5,0-0.9-0.1-1.3-0.2c-2-0.6-3.3-2.1-3.7-3.9c-0.2,0-0.3,0-0.5,0c-1.9,0-3.2-0.8-4-2
		c-0.8-0.3-1.5-0.8-2-1.3c-0.2,0-0.5,0.1-0.8,0.1c-1.7,0-2.9-0.7-3.7-1.7c-0.2,0-0.4,0.1-0.6,0.1c-1,0-1.9-0.2-2.5-0.7
		c-0.4,0.2-0.8,0.3-1.3,0.4c-0.4,0.1-0.8,0.2-1.3,0.2c-2.3,0-3.7-1.2-4.4-2.8H72.5v357h357V281.8
		C429.5,279.2,428.2,279.4,427.5,279.2z"/>
	<g class="st1">
		<path class="st5" d="M286.7,241.9c1.6,0.6,3.4,0.9,4.8,1.8c9.6,5.8,20,5.8,30.3,3.9c6.7-1.2,12.7-4.8,18.3-8.9
			c2.9-2.1,2.2-5.9,3.1-8.9c1.1-3.7,0.9-7.8,2.3-11.3c2.1-5.5-0.4-9.9-2.2-14.5c-4.2-11-12.5-18.1-23.1-22.3
			c-6.7-2.6-13.9-3.7-21.3-2.3c-7.2,1.3-13.3,4.9-19.6,8.1"/>
		<path class="st5" d="M257.8,422.6c-0.3,1.1-0.8,2.3-1,3.5c-1,5.6,1,10.5,3.1,15.5c2.9,7.1,7.3,13.2,13.3,17.8
			c5.1,4,7.8,9.2,10.6,14.6c3,5.9,7.8,10.1,13.4,13.4c5.5,3.3,11.6,5.4,17.9,6.1c2.9,0.3,6.1-0.6,8.9-1.7c2.5-0.9,3.3-5.8,1.8-8.2
			c-4.3-6.9-8.9-13.7-13-20.7c-1.9-3.4-2.2-7.8-4.4-10.9c-2.6-3.6-6.2-6.6-8-10.8c-0.5-1.1-0.3-2.5-0.4-3.8"/>
		<path class="st5" d="M215,404.7c5.3,2.8,13.4,4.3,18.1,8.5c2.6,2.4,6.2,3.6,9.2,5.7c2,1.4,3.5,3.4,5.2,5.1"/>
		<path class="st5" d="M206,393.7"/>
		<path class="st5" d="M200.8,388.2"/>
		<path class="st5" d="M179.5,376.4"/>
		<path class="st5" d="M170.9,307.1c-3.4-2.4-6.8-4.9-10.4-7.2c-8-5.2-15.9-10.7-24.2-15.4c-6.4-3.6-13.3-6.2-19.9-9.5
			c-4.5-2.3-8.8-5-13.1-7.5c-4.4-2.5-8.8-5-13.1-7.6c-2.9-1.8-4.4-0.1-5.5,2.1c-1.5,2.9-1.7,6.1-1.1,9.3
			c2.9,14.9,9.7,27.7,21.8,37.1c3.8,2.9,8.4,5.2,13.1,6.5c8.5,2.4,14.8,7.8,19.8,14.4c5.8,7.5,10.9,15.6,15.9,23.7
			c0.5,0.8,1,1.6,1.5,2.4"/>
		<path class="st5" d="M396.1,324.3c3.6,4.2,4.5,9.4,5.5,14.5c0.9,4.8,1.6,9.6,1.7,14.5c0.2,5.7-0.3,11.3-5,15.6
			c-0.7,0.6-1.1,1.8-1.4,2.7c-2.3,6.5-4.4,13.2-7,19.6c-1.3,3.2-3.9,5.9-5.4,9c-4.2,9.1-7.8,18.4-13.8,26.6
			c-5.1,7-10.9,12.8-19,16.2c-5.1,2.1-10,4.6-15.2,6.4c-3.5,1.2-7.3,1.9-11,2.1c-5,0.3-10.1-0.1-15.2-0.2c-0.6,0-1.1,0.2-1.7,0.3"/>
		<path class="st5" d="M292.6,315.4c5,0,9.9-0.2,14.8,1.3c11.8,3.7,22.2,9.4,29.3,20c5,7.5,9,15.4,11.3,24.1
			c1.6,6.1,3,12.2,1.8,18.6"/>
		<path class="st5" d="M188.8,330.9c4.5,7.2,17.6,17.3,17.6,17.3s15.2,12.8,19.8,22c1.6,3.2,4.1,6.3,6.9,8.6
			c5.8,4.8,8.2,11.3,10.3,18c0.5,1.6,1.1,3.2,1.7,4.8"/>
		<path class="st5" d="M343,213.3c-0.7-1.8-1.2-3.7-2.1-5.5c-3.8-7.8-8.6-14.9-16.2-19.7c-5.5-3.4-11.4-5.1-17.9-5.6
			c-10.5-0.9-18.9,3.4-26.9,9.4c-0.6,0.5-1.6,0.5-2.4,0.7"/>
		<path class="st5" d="M401.9,258.8c-0.5-0.9-1.4-1.9-1.3-2.7c0.8-5.9-1.7-10.9-5-15.1c-6.5-8.3-13.6-16.2-20.6-24.2
			c-3.1-3.6-7.9-4-12.1-5.5c-1.7-0.6-2.1,1-1.6,2.3c0.3,0.8,1.1,1.4,1.7,2.1"/>
		<path class="st5" d="M299.2,257.4c4.7,4.7,9.2,9.7,14.2,14c3.7,3.2,6.6,2.5,9.9-1.3c11.1-12.7,25.1-20.6,41.1-25.4
			c2.3-0.7,2.4-1.8,1.7-3.5c-1.2-2.8-2.3-5.7-3.8-8.2c-1.1-1.8-2.7-3.7-4.5-4.8c-3.1-1.9-3-4.6-2.6-7.3c0.6-4.1,1.9-8,2.3-12.1
			c0.3-4.6,0.5-9.3-0.4-13.8c-1.3-7-4.3-13.8-9.6-18.5c-7.7-6.8-16.2-12.9-26.8-14.2c-10-1.2-19.5,0.8-27.9,6.8
			c-5.1,3.6-9,8.4-12.3,13.5c-1.5,2.3-2.6,5.2-3.1,7.9c-1.5,7.4-3.2,14.9-3.6,22.4c-0.2,4.4,1.6,9,2.9,13.4
			c1.7,5.6,4.9,10.2,8.7,14.7c3.5,4,7.4,7.3,11.2,10.9c0.7,0.7,1.6,1.7,2.4,1.6c4.8-0.4,7.8,3.4,11.7,4.9"/>
		<path class="st5" d="M287.8,362.9c1.1,1.6,2.4,2.7,4.5,1.8c0.4-0.2,1.4,0,1.7,0.3c3.1,3.4,7.8,3.5,11.5,5.7
			c3.8,2.2,8.1,3.8,12.4,4.8c4.5,1.1,9.2,1.3,13.8,1.8c8.3,0.9,16.8,1,24.5,4.8c3.4,1.7,6.5,3.5,9,6.5c2.5,3,2.4,5.9,0.9,9
			c-2.1,4.3-5.3,7.7-9.6,9.6c-4.9,2.2-9.8,4.3-14.8,6.2c-2.6,1-5.5,1.6-8.3,1.7c-6.7,0.1-13.3-0.1-20-0.3c-1.5-0.1-3-0.8-4.5-1.3
			c-1.3-0.5-2.2-1.3-3.9-0.2c-1.1,0.7-3.4-0.2-5.1-0.5c-3.2-0.7-6.4-1.6-9.7-2.2c-1.8-0.3-3.7,4-2.7,6c1.9,3.8,4,7.5,5.8,11.4
			c0.6,1.2,0.5,2.7,0.7,4.1"/>
		<path class="st5" d="M245.7,326.4c-0.5,6.2-1,12.3,1.4,18.3c2.8,6.9,5.9,13.5,12,18.4c5.3,4.3,10.9,5.6,17.3,3.4
			c0.3-0.1,0.7,0,1,0"/>
		<path class="st5" d="M378.1,300.9c-5.9-0.6-11.7-1.8-17.6-1.6c-9.4,0.3-18.3,3-25.8,8.9c-2,1.6-3.6,2-5.9,1.7
			c-8.1-1.2-15.7,0.6-23.1,3.8c-0.5,0.2-0.7,0.9-1,1.3"/>
		<path class="st5" d="M355,226.7c-3,2.1-4.4,6.1-8.3,7.3c-0.2,0.1-0.3,0.6-0.4,1c-1.8,6.5-6.8,10-12,13.5
			c-7.5,5.1-15.6,7.1-24.5,5.8c-1.4-0.2-3,0.4-4.5,0.6"/>
		<path class="st5" d="M276.4,267.8c-4,4-8.3,7.8-12,12.1c-5.2,6-7.9,13.4-9.7,21c-1,4-1.6,8-2.4,12.1"/>
		<path class="st5" d="M198.5,314.3c5.1,9.7,13.5,14.9,23.8,17.7c6.1,1.6,11.7,1,17.3-1.5"/>
		<path class="st5" d="M253.3,214.3c0-0.1,0-0.3,0-0.3c-1.9-1.2-4.3-1.9-5.7-3.6c-1.3-1.4-1.1-4.1-2.3-5.7
			c-5.3-7.2-12.8-8.6-21.3-3.8c-5.1,2.9-8.9,7.4-12.5,12c-4.1,5.1-6.9,10.9-9.2,17c-3,7.8-3.6,15.9-2.5,24.1
			c0.6,4.4,0.9,8.9,3.4,12.8c0.5,0.7,0.1,2,0.1,3.1c0.1,7.9,0.4,15.9,0.2,23.8c-0.1,2.9-1.2,5.8-2,8.6c-1.4,5.6-5.5,8-10.7,9.3
			c-2,0.5-3.9,1.5-5.9,2c-1.3,0.3-2.7,0.3-4.1,0.4"/>
		<path class="st5" d="M266.4,370.5c-2.4,8.7-1,16.9,3.8,24.5c3.3,5.1,7.1,9.6,13.1,11.8c1.3,0.5,2.3,1.8,3.5,2.7"/>
		<path class="st5" d="M246.4,217.1c-0.5,3.1-1,6.2-1.4,9.3c-1.2,9.7-2.7,19.4-3.1,29.3c-0.3,6.1,0.8,12,1,17.9
			c0.4,10.6,2.4,21.2,3.9,31.7c0.2,1.3,0.8,2.6,1.4,3.8c1.9,3.7,3.2,7.5,2.7,11.7c-0.6,6,1.7,11.2,3.8,16.6"/>
		<path class="st5" d="M375.4,294c-6.4-1.5-13-1.8-19.3-0.2c-7.2,1.8-14.1,4.7-20,9.5c-0.1,0.1-0.2,0-0.3,0"/>
		<path class="st5" d="M387.8,329.8c4.2,8.5,6.3,17.4,6.7,26.9c0.2,4.3-0.7,9,2.6,12.8"/>
		<path class="st5" d="M337.1,415.7c-6.2,10.2-15.8,15.6-26.9,19c-1.7,0.5-3.5,0.8-5.2,1.4c-3.9,1.3-6.9,1.4-9.9-2.6
			c-1.6-2.2-5.6-1.3-8.4,0.2"/>
		<path class="st5" d="M293.3,364.3c-0.6-1.4-1-2.9-1.8-4.1c-2.4-3.9-5.3-7.6-5.4-12.4c-0.1-3.7,0.4-7.4,0.6-11
			c0.4-7.4,2.6-14.4,5-21.4c2.3-6.5,3.3-13.5,5-20.3c1.5-6,2.3-12.1,1.4-18.3c-0.8-5.3-6.7-10.3-12.1-10c-0.7,0-1.4,0.2-2.1,0.3
			c-6.1,1.7-10.3-1.8-14.4-5.2c-2.9-2.4-5.3-5.2-8-7.9"/>
		<path class="st5" d="M277.4,230.5c-0.5,0.8-1.2,1.6-1.3,2.4c-1.1,10.7,0.2,21.2,3.7,31.4c0.3,0.9,0.3,1.8,0.4,2.8"/>
		<path class="st5" d="M407.8,318.8c0.3,2,1.1,3.9,1,5.9c-0.6,8.7-1.6,17.5-2.3,26.2c-0.2,1.8-1.1,2.9-2.8,3.4"/>
		<path class="st5" d="M204,293.3c3.4,4.2,7.1,8.3,11.8,10.9c7.6,4.2,15.5,4.3,23-0.6"/>
		<path class="st5" d="M284.3,374c-1.7,3.9-2.6,7.8-2.8,12.1c-0.4,7.3,2.9,13.2,6.7,18.9c1.2,1.7,1.8,3.3,1.6,5.2"/>
		<path class="st5" d="M358.1,313.3c14,5.2,23.6,15.2,30.7,27.9"/>
		<path class="st5" d="M334,310.2c5.4,1.7,10.9,3.1,16.2,5.3c6.3,2.6,12.1,6,16.9,10.9"/>
		<path class="st5" d="M296.1,329.8c13.4,4.1,21.6,14,28.3,25.5"/>
		<path class="st5" d="M195.4,347.1c8,9.1,6.1,4,8.6,15.6"/>
		<path class="st5" d="M427.8,265c-3.3-2.7-6.2-6-11.4-4.7c-2.3,0.6-5.1-0.6-7.5-1.2c-5.5-1.5-9.1,1-9.3,6.6
			c-0.1,2.5,0.6,5.1-1.4,7.2"/>
		<path class="st5" d="M247.8,367.8c2,10.2,7.6,18.1,15.5,24.5c1.2,1,2.1,2.5,3.1,3.8"/>
		<path class="st5" d="M382.3,267.1c-5.5-1-10.6,0.4-15.9,1.6c-4.7,1.1-8.8,3.2-13.1,5.3"/>
		<path class="st5" d="M364.3,216.4c4.8,6.6,9.7,13.1,14.5,19.7c1,1.4,1.4,3.1,2.5,4.4c1.4,1.8,3,3.5,4.8,4.8
			c5.2,3.9,9,8.6,11.1,14.9c0.4,1.3,1.6,2.4,2.4,3.6"/>
		<path class="st5" d="M356.1,278.1c-7.2,4.5-13,10.5-17.5,17.6c-1.4,2.3-2,5.1-3.2,7.5c-0.4,0.8-1.3,1.4-2,2.1"/>
		<path class="st5" d="M208.1,216.4c-3.5-0.5-5.3,2.3-6.8,4.2c-4.4,5.7-5.1,12.3-2.9,19.2"/>
		<path class="st5" d="M410.9,297.1c0.3,3.4,1.2,6.9,0.9,10.3c-0.4,5.2-1.5,10.4-2.3,15.5"/>
		<path class="st5" d="M343.6,174.3c0.3,0.9,0.5,2,1.1,2.7c4.5,5.4,7.3,11.7,8.8,18.3c1.3,5.8,1.3,11.9-0.2,17.9
			c-0.1,0.5-0.4,1-0.3,1.4c1.6,5.5-2.1,9.7-3.5,14.5c-0.3,1.1-0.5,2.3-0.7,3.4"/>
		<path class="st5" d="M452.6,238.5c-3.1-1.1-5.5-1.2-8.1,1.9c-1.9,2.3-5,4.4-8.8,4.5c-1.9,0-4,1.3-5.4,2.7
			c-2.9,2.9-5.6,6.1-6.6,10.3"/>
		<path class="st5" d="M398.1,295.4c2,1.1,3.8,2.5,5.9,3.4c2,0.9,4.2,0.5,5.8-1c1.5-1.4,1-3,0.5-4.8c-1.3-4.7-3.5-8.9-6.6-12.8
			c-2.7-3.4-6.2-4.6-10.4-4.8c-2.6-0.1-3.2,1.3-3.5,3.5c-0.6,5.2,1.4,9.4,4.8,13.1"/>
		<path class="st5" d="M294.3,389.1c0,9.3,3.3,16.9,11,22.4c0.2,0.2,0.2,0.7,0.4,1"/>
		<path class="st5" d="M375.4,338.8c5.3,7.2,8.6,15.2,9.7,24.1"/>
		<path class="st5" d="M203.6,267.4c2.5,1.5,5,3.2,7.6,4.4c5,2.3,10.4,2.9,15.8,2.8"/>
		<path class="st5" d="M319.2,309.3c-3-2.2-6-4.4-9-6.7c-4.1-3.3-8.1-6.6-12.1-10"/>
		<path class="st5" d="M241.6,360.2c-2.1-2.6-3.9-5.5-6.3-7.9c-3.6-3.6-8-6.2-13-7.3"/>
		<path class="st5" d="M262.3,165.7c-2.1-2.4-5-1.4-7.6-1.7c-5.3-0.6-10.3-2.7-15.9-2.1c-3.1,0.3-4.7,2.1-3.5,4.9
			c0.4,0.9,0.5,1.8,0.7,2.8c0.4,1.7,1.4,2.9,3.1,2.7c7.1-0.8,13.1,1.4,18.3,6.2c0.1,0.1,0.7-0.2,1-0.3"/>
		<path class="st5" d="M332.6,239.5c-5.2,1.7-10.3,3.5-15.5,5.1c-1.5,0.5-3.2,0.5-4.8,0.7"/>
		<path class="st5" d="M282.6,171.2c-4.4-2-8.7-4.1-13.1-5.8c-5.1-2-10.6,1.4-10.9,6.9c-0.4,6.3,0.5,10.4,7.8,11.8
			c1.7,0.3,3.2,2,4.9,3c1.7,1.1,3.4,2.1,5.2,3.1"/>
		<path class="st5" d="M388.5,375.3c1.2,5.2-0.6,10.1-1.4,15.2c-0.2,1.5-0.2,3-0.4,4.5"/>
		<path class="st5" d="M289.5,324.7c7.2-0.3,13.6,2.2,19.7,5.9"/>
		<path class="st5" d="M313.3,419.5c-6.1,3.6-12.4,6.5-19.3,7.9"/>
		<path class="st5" d="M134.7,297.4c-1.6,7-3.2,14.1-10,18.3"/>
		<path class="st5" d="M427.1,279.5c-5.7,3.6-11.9,6.1-18.3,8.3"/>
		<path class="st5" d="M384.7,245.4c0.8,2,1.5,3.9,2.4,5.9c1.9,4.1,4,8,4.1,12.8c0.1,3.9,2.5,6.7,5.9,8.7c1.2,0.7,1.9,2.4,2.8,3.7"
			/>
		<path class="st5" d="M327.8,416.4c-2,3.9-6.1,5-9.7,6.9c-2,1-4.1,1.6-6.2,2.5"/>
		<path class="st5" d="M252.6,414c-1.7,5.6-0.1,11.1,1.1,16.5c0.2,1,1.5,1.9,2.3,2.8"/>
		<path class="st5" d="M279.5,374.7c-2.5,5-3,10.4-2.8,15.9"/>
		<path class="st5" d="M242.6,256c4.7,1.7,9.5,3.3,14.1,5.2c6.1,2.4,12.2,5,18.3,7.6"/>
		<path class="st5" d="M326.4,260.2c-5.1,0.3-10.2,1-15.2-1"/>
		<path class="st5" d="M160.2,306.4c3.8,0.7,7.3,1.9,11.4,1.2c2.6-0.4,5.5,1.1,8.2,1.9c2.2,0.6,4.4,1.4,6.6,2.1"/>
		<path class="st5" d="M204.3,390.2"/>
		<path class="st5" d="M219.5,395.3"/>
		<path class="st5" d="M247.4,409.1c0.1,4.9-0.3,10,0.6,14.8c0.5,2.8,1.8,6.4,5.6,7.3"/>
		<path class="st5" d="M253,315.4c1.4,4.7,2.8,9.4,4.1,14.1"/>
		<path class="st5" d="M284,447.8c-2.7,3.9-4.5,8.2-4.5,13.1"/>
		<path class="st5" d="M225,408.7c-0.3-0.9,0-3.8-0.7-4.4c-3.1-2.6-6.4-5.1-9.6-7.6"/>
		<path class="st5" d="M393.3,310.5c3.6,3.3,7,6.7,8.3,11.7"/>
		<path class="st5" d="M273,212.9c-4.5,0.2-9,0.4-13.4,0.7c-1.5,0.1-2.2,0.3-2.9-1.7c-1.5-4.1-5.6-3.8-9.2-4.2"/>
		<path class="st5" d="M301.2,254.3c-0.1,2.7,1.8,4.2,3.4,5.9c1.6,1.6,3,3.2,4.5,4.8"/>
		<path class="st5" d="M394.7,244.3c-3.5-1.8-7-3.6-11-3.4"/>
		<path class="st5" d="M251.2,394.7c1.7,3.5,3.9,6.9,3.4,11"/>
		<path class="st5" d="M259.5,229.1c0,3.7,0,7.4,0,11"/>
		<path class="st5" d="M313,247.8c-1.3-2.1-2.3-4.3-3.9-6.2c-1.8-2.1-4.5-1.3-6.8-1.4"/>
		<path class="st5" d="M269.9,409.8c-4.6,0.6-7.3,3.5-9,7.6"/>
		<path class="st5" d="M302.3,370.2c-2.6,3-5.5,5.8-6.2,10"/>
		<path class="st5" d="M270.5,346.4c2.8,2.6,6.3,2,9.7,2.1"/>
		<path class="st5" d="M454,245c-2.3,0.6-3.2,2.2-3.9,4.5c-0.9,3.1-3.1,5.9-3,9.3"/>
		<path class="st5" d="M439.5,244.7c3.4,2.3,6.3,5,8.3,8.6"/>
		<path class="st5" d="M320.9,303.6c3.1,1.3,6.2,2.5,9.3,3.8"/>
		<path class="st5" d="M442.3,265c-2.6,2.6-5.3,5.3-7.9,7.9"/>
		<path class="st5" d="M391.6,268.1c-1.6-0.5-3.3-0.8-4.8-1.4c-1.5-0.6-3-1.4-4.5-2"/>
		<path class="st5" d="M358.5,229.5c0.6,3.1,2,5.8,4.8,7.6"/>
		<path class="st5" d="M363.6,216c-0.1,0.8-0.6,1.8-0.3,2.4c1.1,2,2.5,3.9,3.7,5.9"/>
		<path class="st5" d="M431.2,264.3c-2.5-1.7-4.2-4.8-7.9-3.8"/>
		<path class="st5" d="M267.8,171.2c-1.4,2.4-3.5,4.8-0.7,7.6"/>
		<path class="st5" d="M445,240.5c2.8,0.8,5.4,1.8,5.9,5.2"/>
		<path class="st5" d="M286.1,350.5c-0.8,2.3-1.6,4.6-2.4,6.9"/>
		<path class="st5" d="M240.5,261.6c-2,2.3-3.9,4.6-5.9,6.9"/>
		<path class="st5" d="M409.2,276c-0.9,2.3-1.8,4.6-2.8,6.9"/>
		<path class="st5" d="M343.6,214.7c-0.2,1.3-0.3,2.6-0.7,3.8c-0.6,1.8-1.3,3.5-2,5.2"/>
		<path class="st5" d="M242.3,274.3c-2.1,1.7-4.1,3.4-6.2,5.2"/>
		<path class="st5" d="M131.9,282.6c0.7,2.2,1.4,4.4,2.1,6.6"/>
		<path class="st5" d="M286.1,333.3c-2.2,0.7-4.4,1.4-6.6,2.1"/>
		<path class="st5" d="M348.8,220.9c-0.3,2.1-0.7,4.1-1,6.2"/>
		<path class="st5" d="M381.2,262.6c3.1,0.3,6.2,0.7,9.3,1"/>
		<path class="st5" d="M297.4,238.8c-0.2,0-0.5,0-0.7,0c-4.7,0-4.7,0-5.5,4.5"/>
		<path class="st5" d="M340.9,352.6c0.5,1.8,0.9,3.7,1.4,5.5"/>
		<path class="st5" d="M249.9,164c-0.7,1.7-1.4,3.4-2.1,5.2"/>
		<path class="st5" d="M359.5,331.9c1.5,1.7,3,3.4,4.5,5.2"/>
		<path class="st5" d="M323,377.1c-0.9,1.7-1.8,3.4-2.8,5.2"/>
		<path class="st5" d="M256.1,214.3c-2.6,0.1-5.3,0.2-7.9,0.3"/>
		<path class="st5" d="M287.8,172.3c-3.1-2-6-0.1-9,0.3"/>
		<path class="st5" d="M419.8,259.1c2.9-1.1,5.8-1.9,8.6,0.3"/>
		<path class="st5" d="M236.4,411.6c1.5,1,2.8,2.1,2.4,4.1"/>
		<path class="st5" d="M350.5,325c1.4,0.9,2.8,1.8,4.1,2.8"/>
		<path class="st5" d="M325.7,357.4c0.5,1.4,0.9,2.8,1.4,4.1"/>
		<path class="st5" d="M417.4,261.2c1.4,0.8,2.8,1.6,4.1,2.4"/>
		<path class="st5" d="M361.2,211.6c-1-1.1-2.1-2.3-3.1-3.4"/>
		<path class="st5" d="M434.7,269.8c-0.7,1-1.5,2-2.1,3.1c-1.1,2.1-1.5,0.3-2.1-0.4"/>
		<path class="st5" d="M248.1,211.6c0,4-2.3,6.1-5.9,7.2"/>
		<path class="st5" d="M367.8,341.6c0.7,1.1,1.4,2.3,2.1,3.4"/>
		<path class="st5" d="M453.3,239.8c1.2,0.9,4.1-0.9,3.8,2.4"/>
		<path class="st5" d="M250.2,319.5c-0.8,0.7-1.6,1.4-2.4,2.1"/>
	</g>
	<path class="st6" d="M429,281.7c0,0,0.5-1.7-2-1c-1.4,0-1-1,0-2c-1-1,3-1,3,3S429,281.7,429,281.7z"/>
	<g class="st1">
		<path class="st7" d="M109,420.9c1.4-8.8,2.9-17.5,6.6-25.8c7.4-16.4,18.8-29,34.5-37.6c3.3-1.8,4.6-4,4.4-7.6
			c-0.2-3.9-0.1-7.7,0.3-11.6c0.3-3.3,2-5.8,5.8-5.7c3.8,0.2,5.1,2.7,5.3,6.1c0,1,0,2,0,3c0,9.6,0.9,10.1,10.3,7.1
			c2.1-0.7,2.4-2.1,2.4-3.8c0.1-2.7,0-5.4,0.5-8c0.6-3,2.7-4.6,5.9-4.4c3,0.2,4.4,2.1,5,4.9c0,0.2,0,0.3,0.1,0.5
			c0.7,3.2-1.6,7.4,1.6,9.4c2.5,1.6,6.2,1.2,9.3,1.8c8.1,1.6,15.6,4.2,22.5,7.8c8,4.2,15.2,9.8,21.8,16.6c2,2.1,1.9,3.5-0.2,5.4
			c-4.1,3.7-8,7.7-12.1,11.5c-1.8,1.7-2,3-0.7,5.2c12.4,19.6,12.6,39.5,0.9,59.5c-1.4,2.4-1.3,4,1.1,5.4c0.1,0.1,0.3,0.2,0.4,0.3
			c11,5.1,13.6,13.9,12.1,25.2c-0.8,5.8-0.3,11.7-0.4,17.6c-23.6,0-47.1,0-70.7,0c-1.1-0.3-2.2-0.7-3.4-0.9
			c-23.6-5.2-41.5-18.2-53.5-39.2c-5.6-9.8-8-20.6-9.7-31.5C109,428.3,109,424.6,109,420.9z M203.5,489.3c8.8,0,16.2,0,23.6,0
			c1.6,0,3.4,0.4,4.4-1.5c1.5-2.9,0-10.3-2.7-12.4c-10.7-8.1-21.5-16.2-32.2-24.4c-2-1.5-4-1.9-6.5-1.7
			c-10.2,0.9-18.3-2.9-23.2-11.9c-4.5-8.1-4.3-16.7,1.1-24.3c5.8-8.3,14-11.8,24.2-9.6c2.3,0.5,4.1,0.3,5.9-1.4
			c8.2-7.7,16.4-15.4,24.8-23c2.5-2.3,2.2-3.5-0.5-5.3c-16.3-10.8-33.9-12.8-52.6-8.3c-3,0.7-4.1,2.4-4,5.4c0.1,6.4,0,12.8,0,19.2
			c0,3.7-1,7-5.3,7.2c-4.3,0.2-5.7-3.1-6-6.7c-0.3-4.2-0.1-8.4-0.2-12.6c0-1.4,0.7-3.4-1-4.1c-1.6-0.7-2.7,1.1-3.9,1.8
			c-0.6,0.3-1.1,0.8-1.6,1.2c-19.8,16.7-27.6,38.1-22.1,63.1c5.3,24.3,21.1,39.9,45,47.1C182,490.4,193.5,489,203.5,489.3z
			 M227,425.4c0.1-3.3-0.6-7.8-2.1-12.1c-3.9-11.5-4.6-11.7-13.2-3.5c-0.5,0.5-0.9,1-1.5,1.4c-2.4,1.8-2.7,3.7-1.5,6.5
			c2.1,4.9,2.9,10.6,0.4,15.2c-3.2,6-1.1,9.1,3.9,11.9c1,0.6,2,1.3,2.8,2.1c2.8,2.6,4.6,1.6,6.2-1.4
			C225.2,439.6,227,433.4,227,425.4z M195.4,426.2c-0.1-4.6-3.8-8.1-8.5-8c-4.7,0.1-7.9,3.3-7.9,7.9c0,4.6,3.8,8.5,8.2,8.5
			C191.5,434.6,195.5,430.5,195.4,426.2z"/>
	</g>
	<path class="st8" d="M68.1,599.8c-0.2,0.2-0.1,0.5,0.2,0.6l11.8,3.1c1.1,0.3,2.1,1,2.7,2.1c0.6,1,0.7,2.3,0.4,3.4l-0.3,1.2
		c-0.3,1.2,0,2.6,0.9,3.4c0.9,0.8,2.1,1.2,3.3,0.8l1.3-0.4c0.3-0.1,0.5-0.4,0.4-0.8c0,0-4.6-17.2-4.9-18.7c0-0.1,0-0.1-0.1-0.2l-5-5
		c-0.1-0.1-0.4-0.1-0.5,0L68.1,599.8z M91.9,615.9c-0.6,1-1.6,1.7-2.7,2l-1.1,0.3c-1.2,0.3-2.2,1.3-2.5,2.5c-0.3,1.2,0,2.4,0.9,3.3
		l1,1c0.2,0.2,0.6,0.2,0.9,0l12.7-12.7c0.1-0.1,0.1-0.4,0-0.5L90,600.8c-0.3-0.3-0.7,0-0.6,0.3l3,11.3
		C92.8,613.6,92.6,614.8,91.9,615.9z M53.3,622.7c-0.1,0.1-0.4,0.1-0.5,0l-3.5-3.5c-0.1-0.1-0.1-0.4,0-0.5l15.1-15.1
		c0.1-0.1,0.2-0.1,0.3-0.1l14.3,3.8c0.2,0,0.3,0.2,0.4,0.3c0.1,0.1,0.1,0.3,0,0.5l-0.3,1.3c-0.3,1.2-1.2,2.1-2.4,2.4
		c-1.2,0.3-2.4,0-3.3-0.9l-0.9-0.9c-0.8-0.8-1.9-1.3-3-1.4c-1.2,0-2.4,0.4-3.3,1.3C66.1,609.9,55.1,620.9,53.3,622.7z M78.8,648.2
		l10.4-10.4c0.2-0.2,0.1-0.6-0.2-0.6l-12-3.2c-1.1-0.3-2.1-1-2.7-2.1c-0.6-1-0.7-2.3-0.4-3.4l0.3-1.1c0.3-1.3,0-2.7-1.1-3.6
		c-0.9-0.7-2-1-3.1-0.7c0,0,0,0,0,0c0,0,0,0,0,0c0,0,0,0,0,0l0,0c0,0,0,0,0,0c-0.9,0.3-1.5,1.3-1.2,2.3l4.4,17.8l5.1,5.1
		C78.4,648.3,78.7,648.3,78.8,648.2z M103.7,614.9c0.1-0.1,0.4-0.1,0.5,0l3.7,3.7c0.1,0.1,0.1,0.4,0,0.5L93,634
		c-0.1,0.1-0.2,0.1-0.3,0.1l-14.5-3.9c-0.2,0-0.3-0.2-0.4-0.3c-0.1-0.1-0.1-0.3,0-0.5l0.3-1.2c0.3-1.2,1.3-2.2,2.5-2.5
		c0.3-0.1,0.5-0.1,0.8-0.1c0.9,0,1.8,0.4,2.4,1l1,1c0.8,0.8,2,1.3,3.1,1.3c1.2,0,2.3-0.5,3.1-1.3L103.7,614.9z M65.1,621.7
		c0.6-1,1.6-1.8,2.7-2.1l1.2-0.3c1.2-0.3,2.2-1.3,2.5-2.5c0.3-1.2,0-2.4-0.9-3.3l-1-1c-0.2-0.2-0.6-0.2-0.9,0c0,0-11,11-12.8,12.8
		c-0.1,0.1-0.1,0.4,0,0.5l11.2,11.2c0.3,0.3,0.7,0,0.6-0.3l-3.1-11.7C64.4,623.9,64.5,622.7,65.1,621.7z M82.4,618.9
		c0,2.1-1.7,3.9-3.9,3.9s-3.9-1.7-3.9-3.9c0-2.1,1.7-3.9,3.9-3.9S82.4,616.7,82.4,618.9z"/>
	<path class="st8" d="M416.1,599.8c-0.2,0.2-0.1,0.5,0.2,0.6l11.8,3.1c1.1,0.3,2.1,1,2.7,2.1c0.6,1,0.7,2.3,0.4,3.4l-0.3,1.2
		c-0.3,1.2,0,2.6,0.9,3.4c0.9,0.8,2.1,1.2,3.3,0.8l1.3-0.4c0.3-0.1,0.5-0.4,0.4-0.8c0,0-4.6-17.2-4.9-18.7c0-0.1,0-0.1-0.1-0.2l-5-5
		c-0.1-0.1-0.4-0.1-0.5,0L416.1,599.8z M439.9,615.9c-0.6,1-1.6,1.7-2.7,2l-1.1,0.3c-1.2,0.3-2.2,1.3-2.5,2.5
		c-0.3,1.2,0,2.4,0.9,3.3l1,1c0.2,0.2,0.6,0.2,0.9,0l12.7-12.7c0.1-0.1,0.1-0.4,0-0.5L438,600.8c-0.3-0.3-0.7,0-0.6,0.3l3,11.3
		C440.8,613.6,440.6,614.8,439.9,615.9z M401.3,622.7c-0.1,0.1-0.4,0.1-0.5,0l-3.5-3.5c-0.1-0.1-0.1-0.4,0-0.5l15.1-15.1
		c0.1-0.1,0.2-0.1,0.3-0.1l14.3,3.8c0.2,0,0.3,0.2,0.4,0.3c0.1,0.1,0.1,0.3,0,0.5l-0.3,1.3c-0.3,1.2-1.2,2.1-2.4,2.4
		c-1.2,0.3-2.4,0-3.3-0.9l-0.9-0.9c-0.8-0.8-1.9-1.3-3-1.4c-1.2,0-2.4,0.4-3.3,1.3C414.1,609.9,403.1,620.9,401.3,622.7z
		 M426.8,648.2l10.4-10.4c0.2-0.2,0.1-0.6-0.2-0.6l-12-3.2c-1.1-0.3-2.1-1-2.7-2.1c-0.6-1-0.7-2.3-0.4-3.4l0.3-1.1
		c0.3-1.3,0-2.7-1.1-3.6c-0.9-0.7-2-1-3.1-0.7c0,0,0,0,0,0c0,0,0,0,0,0c0,0,0,0,0,0l0,0c0,0,0,0,0,0c-0.9,0.3-1.5,1.3-1.2,2.3
		l4.4,17.8l5.1,5.1C426.4,648.3,426.7,648.3,426.8,648.2z M451.7,614.9c0.1-0.1,0.4-0.1,0.5,0l3.7,3.7c0.1,0.1,0.1,0.4,0,0.5
		L441,634c-0.1,0.1-0.2,0.1-0.3,0.1l-14.5-3.9c-0.2,0-0.3-0.2-0.4-0.3c-0.1-0.1-0.1-0.3,0-0.5l0.3-1.2c0.3-1.2,1.3-2.2,2.5-2.5
		c0.3-0.1,0.5-0.1,0.8-0.1c0.9,0,1.8,0.4,2.4,1l1,1c0.8,0.8,2,1.3,3.1,1.3c1.2,0,2.3-0.5,3.1-1.3L451.7,614.9z M413.1,621.7
		c0.6-1,1.6-1.8,2.7-2.1l1.2-0.3c1.2-0.3,2.2-1.3,2.5-2.5c0.3-1.2,0-2.4-0.9-3.3l-1-1c-0.2-0.2-0.6-0.2-0.9,0c0,0-11,11-12.8,12.8
		c-0.1,0.1-0.1,0.4,0,0.5l11.2,11.2c0.3,0.3,0.7,0,0.6-0.3l-3.1-11.7C412.4,623.9,412.5,622.7,413.1,621.7z M430.4,618.9
		c0,2.1-1.7,3.9-3.9,3.9s-3.9-1.7-3.9-3.9c0-2.1,1.7-3.9,3.9-3.9S430.4,616.7,430.4,618.9z"/>
	<g class="st1">
		<text transform="matrix(1 0 0 1 67.7555 105.6243)" class="st7 st9 st10">GITCOIN</text>
	</g>
	<text transform="matrix(1 0 0 1 129.0733 682.8831)" class="st1"><tspan x="0" y="0" class="st11 st12 st13"> </tspan><tspan x="0" y="12" class="st11 st12 st13">IT’S ALL COORDINATION - ALLWAYS HAS BEEN</tspan></text>
	<rect x="26" y="28.7" class="st14" width="454" height="689"/>
	<rect x="39.5" y="40.2" class="st3" width="426" height="82"/>
	<rect x="39.5" y="572.2" class="st3" width="77" height="93"/>
	<rect x="388.5" y="572.2" class="st3" width="77" height="93"/>
	<rect x="124.5" y="572.2" class="st3" width="254" height="93"/>
	<rect x="39" y="134.7" class="st15" width="427" height="427"/>
	<line class="st6" x1="39" y1="691.7" x2="39" y2="690.7"/>
	<line class="st6" x1="123.5" y1="690.7" x2="123.5" y2="691.7"/>
	<text transform="matrix(1 0 0 1 150.9083 642.3176)" class="st16 st9 st10">2021</text>
	<rect x="39" y="681.7" class="st17" width="427" height="19"/>
</g>
<g id="Layer_4">
	<g>
		<path class="st5" d="M453.5,548.7h-403v-403h403V238c-13-0.3-4,3.7,0,7.4V548.7z"/>
		<path class="st18" d="M399.3,265.9c0.9-4.5,4.3-7.3,8.8-7.1c3.7,0.1,7.1,2.2,10.8,2c0.5,0,0.9,0,1.4,0.1c2.8-3.9,6-8.3,9.7-13.1
			v-78.5h-92.7c-14.5-10.6-29.3-8.5-44.3,0c-0.6,1.1-1.7,2-3.2,2.3c-0.7,1-1.8,1.8-3.3,2c-0.4,1-1,1.8-2,2.4
			c-0.3,0.9-0.8,1.8-1.5,2.4c-0.2,1.3-1,2.6-2.2,3.3c1.1,2.9-0.3,7-4.5,7c-2.1,0-3.5-1-4.2-2.5c-0.7-0.1-1.5-0.3-2.2-0.5
			c-0.8-0.3-1.6-0.6-2.4-1c-0.1-0.1-0.3-0.1-0.4-0.2c0,0-0.1,0-0.1-0.1c0,0-0.1,0-0.1-0.1c0,0-0.1,0-0.1,0c0,0,0.1,0,0.1,0
			c-1.5-0.6-2.7-1.7-3.2-3.1c-0.5,0-0.9-0.1-1.3-0.2c-2-0.6-3.3-2.1-3.7-3.9c-0.2,0-0.3,0-0.5,0c-1.9,0-3.2-0.8-4-2
			c-0.8-0.3-1.5-0.8-2-1.3c-0.2,0-0.5,0.1-0.8,0.1c-1.7,0-2.9-0.7-3.7-1.7c-0.2,0-0.4,0.1-0.6,0.1c-1,0-1.9-0.2-2.5-0.7
			c-0.4,0.2-0.8,0.3-1.3,0.4c-0.4,0.1-0.8,0.2-1.3,0.2c-2.3,0-3.7-1.2-4.4-2.8H73v357h357V281.8c0-2.6-1.2-2.4-2-2.6
			c-11.7,7-20,8-20,8s-0.6-1.1-0.7-2c-0.9-0.8-1.4-2-1.3-3.6c0.1-1.4,0.1-1.3-0.7-2.2"/>
		<g>
			<g>
				<path class="st19" d="M287.2,241.9c1.6,0.6,3.4,0.9,4.8,1.8c9.6,5.8,20,5.8,30.3,3.9c6.7-1.2,12.7-4.8,18.3-8.9
					c2.9-2.1,2.2-5.9,3.1-8.9c1.1-3.7,0.9-7.8,2.3-11.3c2.1-5.5-0.4-9.9-2.2-14.5c-4.2-11-12.5-18.1-23.1-22.3
					c-6.7-2.6-13.9-3.7-21.3-2.3c-7.2,1.3-13.3,4.9-19.6,8.1"/>
				<path class="st19" d="M258.3,422.6c-0.3,1.1-0.8,2.3-1,3.5c-1,5.6,1,10.5,3.1,15.5c2.9,7.1,7.3,13.2,13.3,17.8
					c5.1,4,7.8,9.2,10.6,14.6c3,5.9,7.8,10.1,13.4,13.4c5.5,3.3,11.6,5.4,17.9,6.1c2.9,0.3,6.1-0.6,8.9-1.7c2.5-0.9,3.3-5.8,1.8-8.2
					c-4.3-6.9-8.9-13.7-13-20.7c-1.9-3.4-2.2-7.8-4.4-10.9c-2.6-3.6-6.2-6.6-8-10.8c-0.5-1.1-0.3-2.5-0.4-3.8"/>
				<path class="st19" d="M215.5,404.7c5.3,2.8,13.4,4.3,18.1,8.5c2.6,2.4,6.2,3.6,9.2,5.7c2,1.4,3.5,3.4,5.2,5.1"/>
				<path class="st19" d="M206.5,393.7"/>
				<path class="st19" d="M201.3,388.2"/>
				<path class="st19" d="M180,376.4"/>
				<path class="st19" d="M171.4,307.1c-3.4-2.4-6.8-4.9-10.4-7.2c-8-5.2-15.9-10.7-24.2-15.4c-6.4-3.6-13.3-6.2-19.9-9.5
					c-4.5-2.3-8.8-5-13.1-7.5c-4.4-2.5-8.8-5-13.1-7.6c-2.9-1.8-4.4-0.1-5.5,2.1c-1.5,2.9-1.7,6.1-1.1,9.3
					c2.9,14.9,9.7,27.7,21.8,37.1c3.8,2.9,8.4,5.2,13.1,6.5c8.5,2.4,14.8,7.8,19.8,14.4c5.8,7.5,10.9,15.6,15.9,23.7
					c0.5,0.8,1,1.6,1.5,2.4"/>
				<path class="st19" d="M396.6,324.3c3.6,4.2,4.5,9.4,5.5,14.5c0.9,4.8,1.6,9.6,1.7,14.5c0.2,5.7-0.3,11.3-5,15.6
					c-0.7,0.6-1.1,1.8-1.4,2.7c-2.3,6.5-4.4,13.2-7,19.6c-1.3,3.2-3.9,5.9-5.4,9c-4.2,9.1-7.8,18.4-13.8,26.6
					c-5.1,7-10.9,12.8-19,16.2c-5.1,2.1-10,4.6-15.2,6.4c-3.5,1.2-7.3,1.9-11,2.1c-5,0.3-10.1-0.1-15.2-0.2c-0.6,0-1.1,0.2-1.7,0.3"
					/>
				<path class="st19" d="M293.1,315.3c5,0,9.9-0.2,14.8,1.3c11.8,3.7,22.2,9.4,29.3,20c5,7.5,9,15.4,11.3,24.1
					c1.6,6.1,3,12.2,1.8,18.6"/>
				<path class="st19" d="M189.3,330.9c4.5,7.2,17.6,17.3,17.6,17.3s15.2,12.8,19.8,22c1.6,3.2,4.1,6.3,6.9,8.6
					c5.8,4.8,8.2,11.3,10.3,18c0.5,1.6,1.1,3.2,1.7,4.8"/>
				<path class="st19" d="M343.5,213.3c-0.7-1.8-1.2-3.7-2.1-5.5c-3.8-7.8-8.6-14.9-16.2-19.7c-5.5-3.4-11.4-5.1-17.9-5.6
					c-10.5-0.9-18.9,3.4-26.9,9.4c-0.6,0.5-1.6,0.5-2.4,0.7"/>
				<path class="st19" d="M402.4,258.8c-0.5-0.9-1.4-1.9-1.3-2.7c0.8-5.9-1.7-10.9-5-15.1c-6.5-8.3-13.6-16.2-20.6-24.2
					c-3.1-3.6-7.9-4-12.1-5.5c-1.7-0.6-2.1,1-1.6,2.3c0.3,0.8,1.1,1.4,1.7,2.1"/>
				<path class="st19" d="M299.7,257.4c4.7,4.7,9.2,9.7,14.2,14c3.7,3.2,6.6,2.5,9.9-1.3c11.1-12.7,25.1-20.6,41.1-25.4
					c2.3-0.7,2.4-1.8,1.7-3.5c-1.2-2.8-2.3-5.7-3.8-8.2c-1.1-1.8-2.7-3.7-4.5-4.8c-3.1-1.9-3-4.6-2.6-7.3c0.6-4.1,1.9-8,2.3-12.1
					c0.3-4.6,0.5-9.3-0.4-13.8c-1.3-7-4.3-13.8-9.6-18.5c-7.7-6.8-16.2-12.9-26.8-14.2c-10-1.2-19.5,0.8-27.9,6.8
					c-5.1,3.6-9,8.4-12.3,13.5c-1.5,2.3-2.6,5.2-3.1,7.9c-1.5,7.4-3.2,14.9-3.6,22.4c-0.2,4.4,1.6,9,2.9,13.4
					c1.7,5.6,4.9,10.2,8.7,14.7c3.5,4,7.4,7.3,11.2,10.9c0.7,0.7,1.6,1.7,2.4,1.6c4.8-0.4,7.8,3.4,11.7,4.9"/>
				<path class="st19" d="M288.3,362.9c1.1,1.6,2.4,2.7,4.5,1.8c0.4-0.2,1.4,0,1.7,0.3c3.1,3.4,7.8,3.5,11.5,5.7
					c3.8,2.2,8.1,3.8,12.4,4.8c4.5,1.1,9.2,1.3,13.8,1.8c8.3,0.9,16.8,1,24.5,4.8c3.4,1.7,6.5,3.5,9,6.5c2.5,3,2.4,5.9,0.9,9
					c-2.1,4.3-5.3,7.7-9.6,9.6c-4.9,2.2-9.8,4.3-14.8,6.2c-2.6,1-5.5,1.6-8.3,1.7c-6.7,0.1-13.3-0.1-20-0.3c-1.5-0.1-3-0.8-4.5-1.3
					c-1.3-0.5-2.2-1.3-3.9-0.2c-1.1,0.7-3.4-0.2-5.1-0.5c-3.2-0.7-6.4-1.6-9.7-2.2c-1.8-0.3-3.7,4-2.7,6c1.9,3.8,4,7.5,5.8,11.4
					c0.6,1.2,0.5,2.7,0.7,4.1"/>
				<path class="st19" d="M246.2,326.4c-0.5,6.2-1,12.3,1.4,18.3c2.8,6.9,5.9,13.5,12,18.4c5.3,4.3,10.9,5.6,17.3,3.4
					c0.3-0.1,0.7,0,1,0"/>
				<path class="st19" d="M378.6,300.9c-5.9-0.6-11.7-1.8-17.6-1.6c-9.4,0.3-18.3,3-25.8,8.9c-2,1.6-3.6,2-5.9,1.7
					c-8.1-1.2-15.7,0.6-23.1,3.8c-0.5,0.2-0.7,0.9-1,1.3"/>
				<path class="st19" d="M355.5,226.7c-3,2.1-4.4,6.1-8.3,7.3c-0.2,0.1-0.3,0.6-0.4,1c-1.8,6.5-6.8,10-12,13.5
					c-7.5,5.1-15.6,7.1-24.5,5.8c-1.4-0.2-3,0.4-4.5,0.6"/>
				<path class="st19" d="M276.9,267.8c-4,4-8.3,7.8-12,12.1c-5.2,6-7.9,13.4-9.7,21c-1,4-1.6,8-2.4,12.1"/>
				<path class="st19" d="M199,314.3c5.1,9.7,13.5,14.9,23.8,17.7c6.1,1.6,11.7,1,17.3-1.5"/>
				<path class="st19" d="M253.8,214.3c0-0.1,0-0.3,0-0.3c-1.9-1.2-4.3-1.9-5.7-3.6c-1.3-1.4-1.1-4.1-2.3-5.7
					c-5.3-7.2-12.8-8.6-21.3-3.8c-5.1,2.9-8.9,7.4-12.5,12c-4.1,5.1-6.9,10.9-9.2,17c-3,7.8-3.6,15.9-2.5,24.1
					c0.6,4.4,0.9,8.9,3.4,12.8c0.5,0.7,0.1,2,0.1,3.1c0.1,7.9,0.4,15.9,0.2,23.8c-0.1,2.9-1.2,5.8-2,8.6c-1.4,5.6-5.5,8-10.7,9.3
					c-2,0.5-3.9,1.5-5.9,2c-1.3,0.3-2.7,0.3-4.1,0.4"/>
				<path class="st19" d="M266.9,370.5c-2.4,8.7-1,16.9,3.8,24.5c3.3,5.1,7.1,9.6,13.1,11.8c1.3,0.5,2.3,1.8,3.5,2.7"/>
				<path class="st19" d="M246.9,217.1c-0.5,3.1-1,6.2-1.4,9.3c-1.2,9.7-2.7,19.4-3.1,29.3c-0.3,6.1,0.8,12,1,17.9
					c0.4,10.6,2.4,21.2,3.9,31.7c0.2,1.3,0.8,2.6,1.4,3.8c1.9,3.7,3.2,7.5,2.7,11.7c-0.6,6,1.7,11.2,3.8,16.6"/>
				<path class="st19" d="M375.9,294c-6.4-1.5-13-1.8-19.3-0.2c-7.2,1.8-14.1,4.7-20,9.5c-0.1,0.1-0.2,0-0.3,0"/>
				<path class="st19" d="M388.3,329.8c4.2,8.5,6.3,17.4,6.7,26.9c0.2,4.3-0.7,9,2.6,12.8"/>
				<path class="st19" d="M337.6,415.7c-6.2,10.2-15.8,15.6-26.9,19c-1.7,0.5-3.5,0.8-5.2,1.4c-3.9,1.3-6.9,1.4-9.9-2.6
					c-1.6-2.2-5.6-1.3-8.4,0.2"/>
				<path class="st19" d="M293.8,364.3c-0.6-1.4-1-2.9-1.8-4.1c-2.4-3.9-5.3-7.6-5.4-12.4c-0.1-3.7,0.4-7.4,0.6-11
					c0.4-7.4,2.6-14.4,5-21.4c2.3-6.5,3.3-13.5,5-20.3c1.5-6,2.3-12.1,1.4-18.3c-0.8-5.3-6.7-10.3-12.1-10c-0.7,0-1.4,0.2-2.1,0.3
					c-6.1,1.7-10.3-1.8-14.4-5.2c-2.9-2.4-5.3-5.2-8-7.9"/>
				<path class="st19" d="M277.9,230.5c-0.5,0.8-1.2,1.6-1.3,2.4c-1.1,10.7,0.2,21.2,3.7,31.4c0.3,0.9,0.3,1.8,0.4,2.8"/>
				<path class="st19" d="M408.3,318.8c0.3,2,1.1,3.9,1,5.9c-0.6,8.7-1.6,17.5-2.3,26.2c-0.2,1.8-1.1,2.9-2.8,3.4"/>
				<path class="st19" d="M204.5,293.3c3.4,4.2,7.1,8.3,11.8,10.9c7.6,4.2,15.5,4.3,23-0.6"/>
				<path class="st19" d="M284.8,374c-1.7,3.9-2.6,7.8-2.8,12.1c-0.4,7.3,2.9,13.2,6.7,18.9c1.2,1.7,1.8,3.3,1.6,5.2"/>
				<path class="st19" d="M358.6,313.3c14,5.2,23.6,15.2,30.7,27.9"/>
				<path class="st19" d="M334.5,310.2c5.4,1.7,10.9,3.1,16.2,5.3c6.3,2.6,12.1,6,16.9,10.9"/>
				<path class="st19" d="M296.6,329.8c13.4,4.1,21.6,14,28.3,25.5"/>
				<path class="st19" d="M195.9,347.1c8,9.1,6.1,4,8.6,15.6"/>
				<path class="st19" d="M428.3,265c-3.3-2.7-6.2-6-11.4-4.7c-2.3,0.6-5.1-0.6-7.5-1.2c-5.5-1.5-9.1,1-9.3,6.6
					c-0.1,2.5,0.6,5.1-1.4,7.2"/>
				<path class="st19" d="M248.3,367.8c2,10.2,7.6,18.1,15.5,24.5c1.2,1,2.1,2.5,3.1,3.8"/>
				<path class="st19" d="M382.8,267.1c-5.5-1-10.6,0.4-15.9,1.6c-4.7,1.1-8.8,3.2-13.1,5.3"/>
				<path class="st19" d="M364.8,216.4c4.8,6.6,9.7,13.1,14.5,19.7c1,1.4,1.4,3.1,2.5,4.4c1.4,1.8,3,3.5,4.8,4.8
					c5.2,3.9,9,8.6,11.1,14.9c0.4,1.3,1.6,2.4,2.4,3.6"/>
				<path class="st19" d="M356.6,278.1c-7.2,4.5-13,10.5-17.5,17.6c-1.4,2.3-2,5.1-3.2,7.5c-0.4,0.8-1.3,1.4-2,2.1"/>
				<path class="st19" d="M208.6,216.4c-3.5-0.5-5.3,2.3-6.8,4.2c-4.4,5.7-5.1,12.3-2.9,19.2"/>
				<path class="st19" d="M411.4,297.1c0.3,3.4,1.2,6.9,0.9,10.3c-0.4,5.2-1.5,10.4-2.3,15.5"/>
				<path class="st19" d="M344.1,174.3c0.3,0.9,0.5,2,1.1,2.7c4.5,5.4,7.3,11.7,8.8,18.3c1.3,5.8,1.3,11.9-0.2,17.9
					c-0.1,0.5-0.4,1-0.3,1.4c1.6,5.5-2.1,9.7-3.5,14.5c-0.3,1.1-0.5,2.3-0.7,3.4"/>
				<path class="st19" d="M453.1,238.5c-3.1-1.1-5.5-1.2-8.1,1.9c-1.9,2.3-5,4.4-8.8,4.5c-1.9,0-4,1.3-5.4,2.7
					c-2.9,2.9-5.6,6.1-6.6,10.3"/>
				<path class="st19" d="M398.6,295.3c2,1.1,3.8,2.5,5.9,3.4c2,0.9,4.2,0.5,5.8-1c1.5-1.4,1-3,0.5-4.8c-1.3-4.7-3.5-8.9-6.6-12.8
					c-2.7-3.4-6.2-4.6-10.4-4.8c-2.6-0.1-3.2,1.3-3.5,3.5c-0.6,5.2,1.4,9.4,4.8,13.1"/>
				<path class="st19" d="M294.8,389.1c0,9.3,3.3,16.9,11,22.4c0.2,0.2,0.2,0.7,0.4,1"/>
				<path class="st19" d="M375.9,338.8c5.3,7.2,8.6,15.2,9.7,24.1"/>
				<path class="st19" d="M204.1,267.4c2.5,1.5,5,3.2,7.6,4.4c5,2.3,10.4,2.9,15.8,2.8"/>
				<path class="st19" d="M319.7,309.3c-3-2.2-6-4.4-9-6.7c-4.1-3.3-8.1-6.6-12.1-10"/>
				<path class="st19" d="M242.1,360.2c-2.1-2.6-3.9-5.5-6.3-7.9c-3.6-3.6-8-6.2-13-7.3"/>
				<path class="st19" d="M262.8,165.7c-2.1-2.4-5-1.4-7.6-1.7c-5.3-0.6-10.3-2.7-15.9-2.1c-3.1,0.3-4.7,2.1-3.5,4.9
					c0.4,0.9,0.5,1.8,0.7,2.8c0.4,1.7,1.4,2.9,3.1,2.7c7.1-0.8,13.1,1.4,18.3,6.2c0.1,0.1,0.7-0.2,1-0.3"/>
				<path class="st19" d="M333.1,239.5c-5.2,1.7-10.3,3.5-15.5,5.1c-1.5,0.5-3.2,0.5-4.8,0.7"/>
				<path class="st19" d="M283.1,171.2c-4.4-2-8.7-4.1-13.1-5.8c-5.1-2-10.6,1.4-10.9,6.9c-0.4,6.3,0.5,10.4,7.8,11.8
					c1.7,0.3,3.2,2,4.9,3c1.7,1.1,3.4,2.1,5.2,3.1"/>
				<path class="st19" d="M389,375.3c1.2,5.2-0.6,10.1-1.4,15.2c-0.2,1.5-0.2,3-0.4,4.5"/>
				<path class="st19" d="M290,324.7c7.2-0.3,13.6,2.2,19.7,5.9"/>
				<path class="st19" d="M313.8,419.5c-6.1,3.6-12.4,6.5-19.3,7.9"/>
				<path class="st19" d="M135.2,297.4c-1.6,7-3.2,14.1-10,18.3"/>
				<path class="st19" d="M427.6,279.5c-5.7,3.6-11.9,6.1-18.3,8.3"/>
				<path class="st19" d="M385.2,245.3c0.8,2,1.5,3.9,2.4,5.9c1.9,4.1,4,8,4.1,12.8c0.1,3.9,2.5,6.7,5.9,8.7
					c1.2,0.7,1.9,2.4,2.8,3.7"/>
				<path class="st19" d="M328.3,416.4c-2,3.9-6.1,5-9.7,6.9c-2,1-4.1,1.6-6.2,2.5"/>
				<path class="st19" d="M253.1,414c-1.7,5.6-0.1,11.1,1.1,16.5c0.2,1,1.5,1.9,2.3,2.8"/>
				<path class="st19" d="M280,374.7c-2.5,5-3,10.4-2.8,15.9"/>
				<path class="st19" d="M243.1,256c4.7,1.7,9.5,3.3,14.1,5.2c6.1,2.4,12.2,5,18.3,7.6"/>
				<path class="st19" d="M326.9,260.2c-5.1,0.3-10.2,1-15.2-1"/>
				<path class="st19" d="M160.7,306.4c3.8,0.7,7.3,1.9,11.4,1.2c2.6-0.4,5.5,1.1,8.2,1.9c2.2,0.6,4.4,1.4,6.6,2.1"/>
				<path class="st19" d="M204.8,390.2"/>
				<path class="st19" d="M220,395.3"/>
				<path class="st19" d="M247.9,409.1c0.1,4.9-0.3,10,0.6,14.8c0.5,2.8,1.8,6.4,5.6,7.3"/>
				<path class="st19" d="M253.5,315.3c1.4,4.7,2.8,9.4,4.1,14.1"/>
				<path class="st19" d="M284.5,447.8c-2.7,3.9-4.5,8.2-4.5,13.1"/>
				<path class="st19" d="M225.5,408.7c-0.3-0.9,0-3.8-0.7-4.4c-3.1-2.6-6.4-5.1-9.6-7.6"/>
				<path class="st19" d="M393.8,310.5c3.6,3.3,7,6.7,8.3,11.7"/>
				<path class="st19" d="M273.5,212.9c-4.5,0.2-9,0.4-13.4,0.7c-1.5,0.1-2.2,0.3-2.9-1.7c-1.5-4.1-5.6-3.8-9.2-4.2"/>
				<path class="st19" d="M301.7,254.3c-0.1,2.7,1.8,4.2,3.4,5.9c1.6,1.6,3,3.2,4.5,4.8"/>
				<path class="st19" d="M395.2,244.3c-3.5-1.8-7-3.6-11-3.4"/>
				<path class="st19" d="M251.7,394.7c1.7,3.5,3.9,6.9,3.4,11"/>
				<path class="st19" d="M260,229.1c0,3.7,0,7.4,0,11"/>
				<path class="st19" d="M313.5,247.8c-1.3-2.1-2.3-4.3-3.9-6.2c-1.8-2.1-4.5-1.3-6.8-1.4"/>
				<path class="st19" d="M270.4,409.8c-4.6,0.6-7.3,3.5-9,7.6"/>
				<path class="st19" d="M302.8,370.2c-2.6,3-5.5,5.8-6.2,10"/>
				<path class="st19" d="M271,346.4c2.8,2.6,6.3,2,9.7,2.1"/>
				<path class="st19" d="M454.5,245c-2.3,0.6-3.2,2.2-3.9,4.5c-0.9,3.1-3.1,5.9-3,9.3"/>
				<path class="st19" d="M440,244.7c3.4,2.3,6.3,5,8.3,8.6"/>
				<path class="st19" d="M321.4,303.6c3.1,1.3,6.2,2.5,9.3,3.8"/>
				<path class="st19" d="M442.8,265c-2.6,2.6-7.9,7.9-7.9,7.9"/>
				<path class="st19" d="M392.1,268.1c-1.6-0.5-3.3-0.8-4.8-1.4c-1.5-0.6-3-1.4-4.5-2"/>
				<path class="st19" d="M359,229.5c0.6,3.1,2,5.8,4.8,7.6"/>
				<path class="st19" d="M364.1,216c-0.1,0.8-0.6,1.8-0.3,2.4c1.1,2,2.5,3.9,3.7,5.9"/>
				<path class="st19" d="M431.7,264.3c-2.5-1.7-4.2-4.8-7.9-3.8"/>
				<path class="st19" d="M268.3,171.2c-1.4,2.4-3.5,4.8-0.7,7.6"/>
				<path class="st19" d="M445.5,240.5c2.8,0.8,5.4,1.8,5.9,5.2"/>
				<path class="st19" d="M286.6,350.5c-0.8,2.3-1.6,4.6-2.4,6.9"/>
				<path class="st19" d="M241,261.6c-2,2.3-3.9,4.6-5.9,6.9"/>
				<path class="st19" d="M409.7,276c-0.9,2.3-1.8,4.6-2.8,6.9"/>
				<path class="st19" d="M344.1,214.7c-0.2,1.3-0.3,2.6-0.7,3.8c-0.6,1.8-1.3,3.5-2,5.2"/>
				<path class="st19" d="M242.8,274.3c-2.1,1.7-4.1,3.4-6.2,5.2"/>
				<path class="st19" d="M132.4,282.6c0.7,2.2,1.4,4.4,2.1,6.6"/>
				<path class="st19" d="M286.6,333.3c-2.2,0.7-4.4,1.4-6.6,2.1"/>
				<path class="st19" d="M349.3,220.9c-0.3,2.1-0.7,4.1-1,6.2"/>
				<path class="st19" d="M381.7,262.6c3.1,0.3,6.2,0.7,9.3,1"/>
				<path class="st19" d="M297.9,238.8c-0.2,0-0.5,0-0.7,0c-4.7,0-4.7,0-5.5,4.5"/>
				<path class="st19" d="M341.4,352.6c0.5,1.8,0.9,3.7,1.4,5.5"/>
				<path class="st19" d="M250.4,164c-0.7,1.7-1.4,3.4-2.1,5.2"/>
				<path class="st19" d="M360,331.9c1.5,1.7,3,3.4,4.5,5.2"/>
				<path class="st19" d="M323.5,377.1c-0.9,1.7-1.8,3.4-2.8,5.2"/>
				<path class="st19" d="M256.6,214.3c-2.6,0.1-5.3,0.2-7.9,0.3"/>
				<path class="st19" d="M288.3,172.2c-3.1-2-6-0.1-9,0.3"/>
				<path class="st19" d="M420.3,259.1c2.9-1.1,5.8-1.9,8.6,0.3"/>
				<path class="st19" d="M236.9,411.5c1.5,1,2.8,2.1,2.4,4.1"/>
				<path class="st19" d="M351,325c1.4,0.9,2.8,1.8,4.1,2.8"/>
				<path class="st19" d="M326.2,357.4c0.5,1.4,0.9,2.8,1.4,4.1"/>
				<path class="st19" d="M417.9,261.2c1.4,0.8,2.8,1.6,4.1,2.4"/>
				<path class="st19" d="M361.7,211.6c-1-1.1-2.1-2.3-3.1-3.4"/>
				<path class="st19" d="M435.2,269.8c-0.7,1-1.5,2-2.1,3.1c-1.1,2.1-1.5,0.3-2.1-0.4"/>
				<path class="st19" d="M248.6,211.6c0,4-2.3,6.1-5.9,7.2"/>
				<path class="st19" d="M368.3,341.6c0.7,1.1,1.4,2.3,2.1,3.4"/>
				<path class="st19" d="M453.8,239.8c1.2,0.9,4.1-0.9,3.8,2.4"/>
				<path class="st19" d="M250.7,319.5c-0.8,0.7-1.6,1.4-2.4,2.1"/>
			</g>
		</g>
		<g>
			<g>
				<g>
					<g>
						<path class="st11" d="M109.5,426.9c1.4-8.8,2.9-17.5,6.6-25.8c7.4-16.4,18.8-29,34.5-37.6c3.3-1.8,4.6-4,4.4-7.6
							c-0.2-3.9-0.1-7.7,0.3-11.6c0.3-3.3,2-5.8,5.8-5.7c3.8,0.2,5.1,2.7,5.3,6.1c0,1,0,2,0,3c0,9.6,0.9,10.1,10.3,7.1
							c2.1-0.7,2.4-2.1,2.4-3.8c0.1-2.7,0-5.4,0.5-8c0.6-3,2.7-4.6,5.9-4.4c3,0.2,4.4,2.1,5,4.9c0,0.2,0,0.3,0.1,0.5
							c0.7,3.2-1.6,7.4,1.6,9.4c2.5,1.6,6.2,1.2,9.3,1.8c8.1,1.6,15.6,4.2,22.5,7.8c8,4.2,15.2,9.8,21.8,16.6c2,2.1,1.9,3.5-0.2,5.4
							c-4.1,3.7-8,7.7-12.1,11.5c-1.8,1.7-2,3-0.7,5.2c12.4,19.6,12.6,39.5,0.9,59.5c-1.4,2.4-1.3,4,1.1,5.4
							c0.1,0.1,0.3,0.2,0.4,0.3c11,5.1,13.6,13.9,12.1,25.2c-0.8,5.8-0.3,11.7-0.4,17.6c-23.6,0-47.1,0-70.7,0
							c-1.1-0.3-2.2-0.7-3.4-0.9c-23.6-5.2-41.5-18.2-53.5-39.2c-5.6-9.8-8-20.6-9.7-31.5C109.5,434.3,109.5,430.6,109.5,426.9z
							 M204,495.3c8.8,0,16.2,0,23.6,0c1.6,0,3.4,0.4,4.4-1.5c1.5-2.9,0-10.3-2.7-12.4c-10.7-8.1-21.5-16.2-32.2-24.4
							c-2-1.5-4-1.9-6.5-1.7c-10.2,0.9-18.3-2.9-23.2-11.9c-4.5-8.1-4.3-16.7,1.1-24.3c5.8-8.3,14-11.8,24.2-9.6
							c2.3,0.5,4.1,0.3,5.9-1.4c8.2-7.7,16.4-15.4,24.8-23c2.5-2.3,2.2-3.5-0.5-5.3c-16.3-10.8-33.9-12.8-52.6-8.3
							c-3,0.7-4.1,2.4-4,5.4c0.1,6.4,0,12.8,0,19.2c0,3.7-1,7-5.3,7.2c-4.3,0.2-5.7-3.1-6-6.7c-0.3-4.2-0.1-8.4-0.2-12.6
							c0-1.4,0.7-3.4-1-4.1c-1.6-0.7-2.7,1.1-3.9,1.8c-0.6,0.3-1.1,0.8-1.6,1.2c-19.8,16.7-27.6,38.1-22.1,63.1
							c5.3,24.3,21.1,39.9,45,47.1C182.5,496.4,194,495,204,495.3z M227.5,431.4c0.1-3.3-0.6-7.8-2.1-12.1
							c-3.9-11.5-4.6-11.7-13.2-3.5c-0.5,0.5-0.9,1-1.5,1.4c-2.4,1.8-2.7,3.7-1.5,6.5c2.1,4.9,2.9,10.6,0.4,15.2
							c-3.2,6-1.1,9.1,3.9,11.9c1,0.6,2,1.3,2.8,2.1c2.8,2.6,4.6,1.6,6.2-1.4C225.7,445.6,227.5,439.4,227.5,431.4z M195.9,432.2
							c-0.1-4.6-3.8-8.1-8.5-8c-4.7,0.1-7.9,3.3-7.9,7.9c0,4.6,3.8,8.5,8.2,8.5C192,440.6,196,436.5,195.9,432.2z"/>
					</g>
				</g>
			</g>
		</g>
		<path class="st20" d="M68.6,599.8c-0.2,0.2-0.1,0.5,0.2,0.6l11.8,3.1c1.1,0.3,2.1,1,2.7,2.1c0.6,1,0.7,2.3,0.4,3.4l-0.3,1.2
			c-0.3,1.2,0,2.6,0.9,3.4c0.9,0.8,2.1,1.2,3.3,0.8l1.3-0.4c0.3-0.1,0.5-0.4,0.4-0.8c0,0-4.6-17.2-4.9-18.7c0-0.1,0-0.1-0.1-0.2
			l-5-5c-0.1-0.1-0.4-0.1-0.5,0L68.6,599.8z M92.4,615.9c-0.6,1-1.6,1.7-2.7,2l-1.1,0.3c-1.2,0.3-2.2,1.3-2.5,2.5
			c-0.3,1.2,0,2.4,0.9,3.3l1,1c0.2,0.2,0.6,0.2,0.9,0l12.7-12.7c0.1-0.1,0.1-0.4,0-0.5l-10.9-10.9c-0.3-0.3-0.7,0-0.6,0.3l3,11.3
			C93.3,613.6,93.1,614.8,92.4,615.9z M53.8,622.7c-0.1,0.1-0.4,0.1-0.5,0l-3.5-3.5c-0.1-0.1-0.1-0.4,0-0.5l15.1-15.1
			c0.1-0.1,0.2-0.1,0.3-0.1l14.3,3.8c0.2,0,0.3,0.2,0.4,0.3c0.1,0.1,0.1,0.3,0,0.5l-0.3,1.3c-0.3,1.2-1.2,2.1-2.4,2.4
			c-1.2,0.3-2.4,0-3.3-0.9l-0.9-0.9c-0.8-0.8-1.9-1.3-3-1.4c-1.2,0-2.4,0.4-3.3,1.3C66.6,609.8,55.6,620.9,53.8,622.7z M79.3,648.2
			l10.4-10.4c0.2-0.2,0.1-0.6-0.2-0.6l-12-3.2c-1.1-0.3-2.1-1-2.7-2.1c-0.6-1-0.7-2.3-0.4-3.4l0.3-1.1c0.3-1.3,0-2.7-1.1-3.6
			c-0.9-0.7-2-1-3.1-0.7c0,0,0,0,0,0c0,0,0,0,0,0c0,0,0,0,0,0l0,0c0,0,0,0,0,0c-0.9,0.3-1.5,1.3-1.2,2.3l4.4,17.8l5.1,5.1
			C78.9,648.3,79.2,648.3,79.3,648.2z M104.2,614.9c0.1-0.1,0.4-0.1,0.5,0l3.7,3.7c0.1,0.1,0.1,0.4,0,0.5L93.5,634
			c-0.1,0.1-0.2,0.1-0.3,0.1l-14.5-3.9c-0.2,0-0.3-0.2-0.4-0.3c-0.1-0.1-0.1-0.3,0-0.5l0.3-1.2c0.3-1.2,1.3-2.2,2.5-2.5
			c0.3-0.1,0.5-0.1,0.8-0.1c0.9,0,1.8,0.4,2.4,1l1,1c0.8,0.8,2,1.3,3.1,1.3c1.2,0,2.3-0.5,3.1-1.3L104.2,614.9z M65.6,621.7
			c0.6-1,1.6-1.8,2.7-2.1l1.2-0.3c1.2-0.3,2.2-1.3,2.5-2.5c0.3-1.2,0-2.4-0.9-3.3l-1-1c-0.2-0.2-0.6-0.2-0.9,0c0,0-11,11-12.8,12.8
			c-0.1,0.1-0.1,0.4,0,0.5l11.2,11.2c0.3,0.3,0.7,0,0.6-0.3L65.2,625C64.9,623.9,65,622.7,65.6,621.7z M82.9,618.9
			c0,2.1-1.7,3.9-3.9,3.9s-3.9-1.7-3.9-3.9c0-2.1,1.7-3.9,3.9-3.9S82.9,616.7,82.9,618.9z"/>
		<path class="st20" d="M416.6,599.8c-0.2,0.2-0.1,0.5,0.2,0.6l11.8,3.1c1.1,0.3,2.1,1,2.7,2.1c0.6,1,0.7,2.3,0.4,3.4l-0.3,1.2
			c-0.3,1.2,0,2.6,0.9,3.4c0.9,0.8,2.1,1.2,3.3,0.8l1.3-0.4c0.3-0.1,0.5-0.4,0.4-0.8c0,0-4.6-17.2-4.9-18.7c0-0.1,0-0.1-0.1-0.2
			l-5-5c-0.1-0.1-0.4-0.1-0.5,0L416.6,599.8z M440.4,615.9c-0.6,1-1.6,1.7-2.7,2l-1.1,0.3c-1.2,0.3-2.2,1.3-2.5,2.5
			c-0.3,1.2,0,2.4,0.9,3.3l1,1c0.2,0.2,0.6,0.2,0.9,0l12.7-12.7c0.1-0.1,0.1-0.4,0-0.5l-10.9-10.9c-0.3-0.3-0.7,0-0.6,0.3l3,11.3
			C441.3,613.6,441.1,614.8,440.4,615.9z M401.8,622.7c-0.1,0.1-0.4,0.1-0.5,0l-3.5-3.5c-0.1-0.1-0.1-0.4,0-0.5l15.1-15.1
			c0.1-0.1,0.2-0.1,0.3-0.1l14.3,3.8c0.2,0,0.3,0.2,0.4,0.3c0.1,0.1,0.1,0.3,0,0.5l-0.3,1.3c-0.3,1.2-1.2,2.1-2.4,2.4
			c-1.2,0.3-2.4,0-3.3-0.9l-0.9-0.9c-0.8-0.8-1.9-1.3-3-1.4c-1.2,0-2.4,0.4-3.3,1.3C414.6,609.8,403.6,620.9,401.8,622.7z
			 M427.3,648.2l10.4-10.4c0.2-0.2,0.1-0.6-0.2-0.6l-12-3.2c-1.1-0.3-2.1-1-2.7-2.1c-0.6-1-0.7-2.3-0.4-3.4l0.3-1.1
			c0.3-1.3,0-2.7-1.1-3.6c-0.9-0.7-2-1-3.1-0.7c0,0,0,0,0,0c0,0,0,0,0,0c0,0,0,0,0,0l0,0c0,0,0,0,0,0c-0.9,0.3-1.5,1.3-1.2,2.3
			l4.4,17.8l5.1,5.1C426.9,648.3,427.2,648.3,427.3,648.2z M452.2,614.9c0.1-0.1,0.4-0.1,0.5,0l3.7,3.7c0.1,0.1,0.1,0.4,0,0.5
			L441.5,634c-0.1,0.1-0.2,0.1-0.3,0.1l-14.5-3.9c-0.2,0-0.3-0.2-0.4-0.3c-0.1-0.1-0.1-0.3,0-0.5l0.3-1.2c0.3-1.2,1.3-2.2,2.5-2.5
			c0.3-0.1,0.5-0.1,0.8-0.1c0.9,0,1.8,0.4,2.4,1l1,1c0.8,0.8,2,1.3,3.1,1.3c1.2,0,2.3-0.5,3.1-1.3L452.2,614.9z M413.6,621.7
			c0.6-1,1.6-1.8,2.7-2.1l1.2-0.3c1.2-0.3,2.2-1.3,2.5-2.5c0.3-1.2,0-2.4-0.9-3.3l-1-1c-0.2-0.2-0.6-0.2-0.9,0c0,0-11,11-12.8,12.8
			c-0.1,0.1-0.1,0.4,0,0.5l11.2,11.2c0.3,0.3,0.7,0,0.6-0.3l-3.1-11.7C412.9,623.9,413,622.7,413.6,621.7z M430.9,618.9
			c0,2.1-1.7,3.9-3.9,3.9s-3.9-1.7-3.9-3.9c0-2.1,1.7-3.9,3.9-3.9S430.9,616.7,430.9,618.9z"/>
		<g>
			<text transform="matrix(1 0 0 1 68.2554 105.6175)" class="st11 st9 st10">GITCOIN</text>
		</g>
		<g>
			<text transform="matrix(1 0 0 1 129.5733 682.8763)"><tspan x="0" y="0" class="st11 st12 st13"> </tspan><tspan x="0" y="12" class="st11 st12 st13">IT’S ALL COORDINATION - ALLWAYS HAS BEEN</tspan></text>
		</g>
		<rect x="26.5" y="28.7" class="st21" width="454" height="689"/>
		<rect x="40" y="40.2" class="st21" width="426" height="82"/>
		<rect x="40" y="572.2" class="st21" width="77" height="93"/>
		<rect x="389" y="572.2" class="st21" width="77" height="93"/>
		<rect x="125" y="572.2" class="st21" width="254" height="93"/>
		<rect x="39.5" y="134.7" class="st21" width="427" height="427"/>
		<line class="st22" x1="39.5" y1="691.7" x2="39.5" y2="690.7"/>
		<line class="st22" x1="124" y1="690.7" x2="124" y2="691.7"/>
		<g>
			<text transform="matrix(1 0 0 1 148.4083 644.3109)" class="st11 st9 st10">2021</text>
		</g>
		<rect x="39.5" y="681.7" class="st18" width="427" height="19"/>
	</g>
</g>
</svg>
